<svg width="1440" height="660" viewBox="0 0 1440 660" fill="none" xmlns="http://www.w3.org/2000/svg">
<g clip-path="url(#clip0_696_18076)">
<rect width="1440" height="660" fill="white"/>
<path opacity="0.4" d="M1211.6 634.768C1430.3 622.353 1577.15 749.882 1613.81 775.306C1923.15 989.84 1838.26 1149.69 1844.56 1260.69L858.975 2002.42L-753.195 -139.78C-733.316 -151.432 -652.926 -166.706 -490.4 -134.592C-287.243 -94.4497 -199.046 54.1901 -70.119 249.471C58.8077 444.752 214.575 496.817 338.284 499.284C541.468 503.336 656.886 612.939 804.056 678.896C951.227 744.852 1054.45 643.689 1211.6 634.768Z" fill="#FFDFDF"/>
<path opacity="0.4" d="M1298.12 600.405C1473.4 544.191 1642.9 593.264 1799.69 749.9C2089.64 1039.57 1851.81 1126.83 1863.26 1246.62L858.976 2002.42L-929.655 -374.253C-909.255 -385.934 -836.049 -369.609 -653.051 -357.242C-498.31 -346.784 -398.211 -330.573 -78.8157 116.806C71.9218 327.945 60.362 497.573 280.793 594.643C403.738 648.783 695.828 524.755 912.609 620.084C1129.39 715.414 1137.57 651.896 1298.12 600.405Z" fill="url(#paint0_linear_696_18076)"/>
<path d="M1439.16 689.976C1557.69 662.728 1755.34 701.946 1885.39 805.104C2075.91 956.234 2259.14 1095.87 2248.98 1184.53L968.613 2148.1L-729.177 -107.864C-708.207 -120.386 -747 -229.393 -594.55 -176.582C-360.218 -95.4065 -28.9572 298.573 83.2021 487.993C200.717 686.457 456.098 701.299 586.679 684.996C771.899 661.871 880.967 705.515 985.614 758.563C1118.48 825.914 1272.85 728.205 1439.16 689.976Z" fill="url(#paint1_linear_696_18076)"/>
<path d="M106.312 258V216.415H114.595L124.438 245.859C125.345 248.601 126.007 250.653 126.423 252.015C126.896 250.502 127.634 248.28 128.636 245.349L138.592 216.415H145.996V258H140.692V223.195L128.608 258H123.643L111.616 222.599V258H106.312ZM173.88 254.284C171.989 255.891 170.164 257.026 168.405 257.688C166.666 258.35 164.793 258.681 162.789 258.681C159.479 258.681 156.936 257.877 155.158 256.27C153.381 254.643 152.492 252.573 152.492 250.057C152.492 248.582 152.823 247.24 153.485 246.029C154.166 244.8 155.045 243.817 156.123 243.079C157.22 242.342 158.449 241.784 159.81 241.406C160.813 241.141 162.326 240.886 164.349 240.64C168.472 240.148 171.507 239.562 173.455 238.881C173.474 238.181 173.483 237.737 173.483 237.548C173.483 235.468 173.001 234.002 172.036 233.151C170.731 231.998 168.793 231.421 166.221 231.421C163.82 231.421 162.042 231.846 160.888 232.697C159.754 233.529 158.912 235.014 158.364 237.151L153.371 236.47C153.825 234.333 154.572 232.612 155.612 231.307C156.652 229.984 158.156 228.972 160.122 228.272C162.089 227.554 164.368 227.194 166.959 227.194C169.531 227.194 171.62 227.497 173.228 228.102C174.835 228.707 176.017 229.473 176.773 230.4C177.53 231.307 178.059 232.461 178.362 233.86C178.532 234.73 178.617 236.3 178.617 238.569V245.377C178.617 250.124 178.721 253.13 178.929 254.397C179.156 255.646 179.591 256.846 180.234 258H174.901C174.372 256.941 174.031 255.702 173.88 254.284ZM173.455 242.881C171.601 243.637 168.821 244.28 165.115 244.81C163.016 245.112 161.531 245.453 160.661 245.831C159.792 246.209 159.12 246.767 158.647 247.504C158.175 248.223 157.938 249.027 157.938 249.916C157.938 251.277 158.449 252.412 159.47 253.32C160.51 254.227 162.023 254.681 164.009 254.681C165.975 254.681 167.725 254.256 169.256 253.405C170.788 252.535 171.913 251.353 172.632 249.859C173.18 248.705 173.455 247.003 173.455 244.753V242.881ZM186.588 222.287V216.415H191.694V222.287H186.588ZM186.588 258V227.875H191.694V258H186.588ZM199.495 258V227.875H204.09V232.158C206.303 228.849 209.499 227.194 213.678 227.194C215.493 227.194 217.158 227.525 218.67 228.187C220.202 228.83 221.346 229.681 222.103 230.74C222.859 231.799 223.389 233.057 223.691 234.513C223.88 235.458 223.975 237.113 223.975 239.477V258H218.869V239.675C218.869 237.595 218.67 236.045 218.273 235.023C217.876 233.983 217.167 233.161 216.146 232.555C215.144 231.931 213.962 231.619 212.6 231.619C210.425 231.619 208.544 232.31 206.955 233.69C205.386 235.071 204.601 237.69 204.601 241.548V258H199.495ZM242.98 253.433L243.718 257.943C242.281 258.246 240.995 258.397 239.86 258.397C238.007 258.397 236.57 258.104 235.548 257.518C234.527 256.932 233.809 256.166 233.393 255.22C232.976 254.256 232.768 252.242 232.768 249.178V231.846H229.024V227.875H232.768V220.415L237.846 217.351V227.875H242.98V231.846H237.846V249.462C237.846 250.918 237.931 251.854 238.101 252.27C238.29 252.686 238.584 253.017 238.981 253.263C239.397 253.509 239.983 253.632 240.739 253.632C241.307 253.632 242.054 253.565 242.98 253.433ZM267.659 254.284C265.768 255.891 263.943 257.026 262.184 257.688C260.444 258.35 258.572 258.681 256.568 258.681C253.258 258.681 250.715 257.877 248.937 256.27C247.16 254.643 246.271 252.573 246.271 250.057C246.271 248.582 246.602 247.24 247.264 246.029C247.944 244.8 248.824 243.817 249.902 243.079C250.998 242.342 252.228 241.784 253.589 241.406C254.592 241.141 256.104 240.886 258.128 240.64C262.25 240.148 265.286 239.562 267.233 238.881C267.252 238.181 267.262 237.737 267.262 237.548C267.262 235.468 266.78 234.002 265.815 233.151C264.51 231.998 262.572 231.421 260 231.421C257.598 231.421 255.821 231.846 254.667 232.697C253.533 233.529 252.691 235.014 252.143 237.151L247.15 236.47C247.604 234.333 248.351 232.612 249.391 231.307C250.431 229.984 251.935 228.972 253.901 228.272C255.868 227.554 258.147 227.194 260.738 227.194C263.309 227.194 265.399 227.497 267.007 228.102C268.614 228.707 269.796 229.473 270.552 230.4C271.309 231.307 271.838 232.461 272.141 233.86C272.311 234.73 272.396 236.3 272.396 238.569V245.377C272.396 250.124 272.5 253.13 272.708 254.397C272.935 255.646 273.37 256.846 274.013 258H268.68C268.151 256.941 267.81 255.702 267.659 254.284ZM267.233 242.881C265.38 243.637 262.6 244.28 258.894 244.81C256.795 245.112 255.31 245.453 254.44 245.831C253.57 246.209 252.899 246.767 252.426 247.504C251.953 248.223 251.717 249.027 251.717 249.916C251.717 251.277 252.228 252.412 253.249 253.32C254.289 254.227 255.802 254.681 257.787 254.681C259.754 254.681 261.503 254.256 263.035 253.405C264.567 252.535 265.692 251.353 266.411 249.859C266.959 248.705 267.233 247.003 267.233 244.753V242.881ZM280.367 222.287V216.415H285.473V222.287H280.367ZM280.367 258V227.875H285.473V258H280.367ZM293.274 258V227.875H297.869V232.158C300.082 228.849 303.277 227.194 307.457 227.194C309.272 227.194 310.936 227.525 312.449 228.187C313.981 228.83 315.125 229.681 315.882 230.74C316.638 231.799 317.168 233.057 317.47 234.513C317.659 235.458 317.754 237.113 317.754 239.477V258H312.648V239.675C312.648 237.595 312.449 236.045 312.052 235.023C311.655 233.983 310.946 233.161 309.925 232.555C308.922 231.931 307.74 231.619 306.379 231.619C304.204 231.619 302.322 232.31 300.734 233.69C299.164 235.071 298.38 237.69 298.38 241.548V258H293.274ZM325.64 222.287V216.415H330.745V222.287H325.64ZM325.64 258V227.875H330.745V258H325.64ZM338.546 258V227.875H343.142V232.158C345.354 228.849 348.55 227.194 352.729 227.194C354.545 227.194 356.209 227.525 357.722 228.187C359.254 228.83 360.398 229.681 361.154 230.74C361.911 231.799 362.44 233.057 362.743 234.513C362.932 235.458 363.026 237.113 363.026 239.477V258H357.92V239.675C357.92 237.595 357.722 236.045 357.325 235.023C356.928 233.983 356.218 233.161 355.197 232.555C354.195 231.931 353.013 231.619 351.651 231.619C349.477 231.619 347.595 232.31 346.007 233.69C344.437 235.071 343.652 237.69 343.652 241.548V258H338.546ZM369.948 260.496L374.912 261.234C375.12 262.766 375.697 263.881 376.642 264.581C377.909 265.527 379.639 265.999 381.833 265.999C384.197 265.999 386.022 265.527 387.308 264.581C388.594 263.635 389.464 262.312 389.917 260.61C390.182 259.57 390.305 257.385 390.286 254.057C388.055 256.686 385.275 258 381.947 258C377.805 258 374.6 256.506 372.33 253.518C370.061 250.53 368.926 246.947 368.926 242.767C368.926 239.893 369.447 237.245 370.487 234.825C371.527 232.385 373.03 230.504 374.997 229.18C376.982 227.856 379.309 227.194 381.975 227.194C385.53 227.194 388.461 228.631 390.768 231.506V227.875H395.477V253.915C395.477 258.605 394.995 261.924 394.031 263.872C393.085 265.839 391.572 267.389 389.492 268.524C387.431 269.659 384.887 270.226 381.861 270.226C378.268 270.226 375.366 269.413 373.153 267.786C370.94 266.179 369.872 263.749 369.948 260.496ZM374.174 242.399C374.174 246.351 374.959 249.235 376.529 251.05C378.098 252.866 380.065 253.773 382.429 253.773C384.774 253.773 386.74 252.875 388.329 251.079C389.917 249.263 390.712 246.427 390.712 242.569C390.712 238.881 389.889 236.101 388.244 234.229C386.618 232.357 384.651 231.421 382.344 231.421C380.074 231.421 378.145 232.347 376.557 234.201C374.968 236.035 374.174 238.768 374.174 242.399ZM106.227 339V297.415H119.701C124.806 297.415 128.135 297.623 129.685 298.039C132.068 298.663 134.063 300.025 135.671 302.124C137.278 304.204 138.082 306.899 138.082 310.208C138.082 312.761 137.619 314.908 136.692 316.647C135.765 318.387 134.583 319.758 133.146 320.76C131.728 321.744 130.281 322.396 128.806 322.718C126.802 323.115 123.899 323.313 120.098 323.313H114.623V339H106.227ZM114.623 304.45V316.25H119.218C122.528 316.25 124.74 316.033 125.856 315.598C126.972 315.163 127.842 314.482 128.466 313.555C129.109 312.629 129.43 311.551 129.43 310.322C129.43 308.809 128.986 307.561 128.097 306.577C127.208 305.594 126.083 304.979 124.721 304.734C123.719 304.544 121.705 304.45 118.679 304.45H114.623ZM150.875 318.066L143.642 316.761C144.455 313.849 145.854 311.693 147.84 310.293C149.826 308.894 152.776 308.194 156.69 308.194C160.245 308.194 162.893 308.62 164.633 309.471C166.372 310.303 167.592 311.371 168.292 312.676C169.011 313.962 169.37 316.335 169.37 319.796L169.285 329.1C169.285 331.748 169.408 333.705 169.654 334.972C169.918 336.22 170.4 337.563 171.1 339H163.214C163.006 338.47 162.751 337.686 162.448 336.646C162.316 336.173 162.222 335.861 162.165 335.71C160.803 337.033 159.347 338.026 157.796 338.688C156.246 339.35 154.591 339.681 152.832 339.681C149.731 339.681 147.282 338.839 145.485 337.156C143.708 335.473 142.819 333.346 142.819 330.774C142.819 329.072 143.226 327.559 144.039 326.235C144.852 324.893 145.987 323.871 147.443 323.172C148.918 322.453 151.036 321.829 153.797 321.299C157.522 320.6 160.104 319.947 161.541 319.342V318.548C161.541 317.016 161.163 315.929 160.406 315.286C159.65 314.624 158.222 314.293 156.123 314.293C154.705 314.293 153.598 314.577 152.804 315.144C152.01 315.692 151.367 316.666 150.875 318.066ZM161.541 324.533C160.52 324.874 158.903 325.28 156.69 325.753C154.478 326.226 153.031 326.689 152.35 327.143C151.31 327.88 150.79 328.817 150.79 329.951C150.79 331.067 151.206 332.031 152.038 332.845C152.87 333.658 153.929 334.064 155.215 334.064C156.652 334.064 158.023 333.592 159.328 332.646C160.293 331.927 160.926 331.048 161.229 330.008C161.437 329.327 161.541 328.032 161.541 326.122V324.533ZM191.07 308.875V315.229H185.624V327.37C185.624 329.828 185.671 331.265 185.766 331.682C185.879 332.079 186.115 332.41 186.475 332.674C186.853 332.939 187.307 333.071 187.836 333.071C188.574 333.071 189.642 332.816 191.042 332.306L191.722 338.489C189.869 339.284 187.77 339.681 185.425 339.681C183.988 339.681 182.693 339.444 181.539 338.972C180.385 338.48 179.534 337.856 178.986 337.099C178.457 336.324 178.088 335.284 177.88 333.979C177.71 333.053 177.624 331.18 177.624 328.363V315.229H173.965V308.875H177.624V302.89L185.624 298.238V308.875H191.07ZM196.601 304.79V297.415H204.572V304.79H196.601ZM196.601 339V308.875H204.572V339H196.601ZM230.215 329.412L238.158 330.745C237.137 333.658 235.52 335.88 233.307 337.411C231.114 338.924 228.362 339.681 225.053 339.681C219.815 339.681 215.938 337.969 213.423 334.546C211.437 331.804 210.444 328.344 210.444 324.164C210.444 319.172 211.749 315.267 214.359 312.449C216.968 309.613 220.268 308.194 224.259 308.194C228.74 308.194 232.277 309.679 234.868 312.648C237.458 315.598 238.697 320.127 238.584 326.235H218.614C218.67 328.599 219.313 330.443 220.543 331.767C221.772 333.071 223.304 333.724 225.138 333.724C226.386 333.724 227.436 333.383 228.287 332.703C229.138 332.022 229.781 330.925 230.215 329.412ZM230.669 321.356C230.613 319.049 230.017 317.3 228.882 316.108C227.748 314.898 226.367 314.293 224.741 314.293C223.001 314.293 221.564 314.927 220.429 316.194C219.294 317.461 218.737 319.181 218.756 321.356H230.669ZM272.51 339H264.539V323.625C264.539 320.373 264.368 318.274 264.028 317.328C263.688 316.364 263.13 315.617 262.354 315.087C261.598 314.558 260.681 314.293 259.603 314.293C258.222 314.293 256.984 314.671 255.887 315.428C254.79 316.184 254.034 317.186 253.618 318.434C253.221 319.683 253.022 321.99 253.022 325.356V339H245.051V308.875H252.455V313.3C255.083 309.896 258.393 308.194 262.383 308.194C264.142 308.194 265.749 308.516 267.205 309.159C268.661 309.783 269.758 310.586 270.496 311.57C271.252 312.553 271.772 313.669 272.056 314.917C272.358 316.165 272.51 317.952 272.51 320.278V339ZM294.437 308.875V315.229H288.99V327.37C288.99 329.828 289.038 331.265 289.132 331.682C289.246 332.079 289.482 332.41 289.841 332.674C290.22 332.939 290.673 333.071 291.203 333.071C291.94 333.071 293.009 332.816 294.408 332.306L295.089 338.489C293.236 339.284 291.137 339.681 288.792 339.681C287.355 339.681 286.059 339.444 284.906 338.972C283.752 338.48 282.901 337.856 282.353 337.099C281.823 336.324 281.454 335.284 281.246 333.979C281.076 333.053 280.991 331.18 280.991 328.363V315.229H277.332V308.875H280.991V302.89L288.99 298.238V308.875H294.437ZM316.222 339V297.415H333.894C338.338 297.415 341.562 297.793 343.567 298.55C345.59 299.287 347.207 300.611 348.418 302.521C349.628 304.431 350.233 306.615 350.233 309.074C350.233 312.194 349.316 314.775 347.482 316.818C345.647 318.841 342.905 320.118 339.255 320.647C341.071 321.706 342.565 322.869 343.737 324.136C344.929 325.403 346.527 327.653 348.531 330.887L353.609 339H343.567L337.497 329.951C335.341 326.717 333.866 324.684 333.072 323.852C332.277 323.001 331.436 322.425 330.547 322.122C329.658 321.801 328.249 321.64 326.32 321.64H324.618V339H316.222ZM324.618 315.002H330.831C334.859 315.002 337.374 314.832 338.376 314.492C339.378 314.151 340.163 313.565 340.73 312.733C341.298 311.901 341.581 310.861 341.581 309.613C341.581 308.213 341.203 307.088 340.447 306.237C339.709 305.367 338.66 304.819 337.298 304.592C336.617 304.497 334.575 304.45 331.171 304.45H324.618V315.002ZM375.564 329.412L383.507 330.745C382.486 333.658 380.869 335.88 378.656 337.411C376.462 338.924 373.711 339.681 370.402 339.681C365.163 339.681 361.287 337.969 358.771 334.546C356.786 331.804 355.793 328.344 355.793 324.164C355.793 319.172 357.098 315.267 359.707 312.449C362.317 309.613 365.617 308.194 369.607 308.194C374.089 308.194 377.625 309.679 380.216 312.648C382.807 315.598 384.046 320.127 383.932 326.235H363.962C364.019 328.599 364.662 330.443 365.891 331.767C367.12 333.071 368.652 333.724 370.487 333.724C371.735 333.724 372.784 333.383 373.635 332.703C374.486 332.022 375.129 330.925 375.564 329.412ZM376.018 321.356C375.961 319.049 375.366 317.3 374.231 316.108C373.096 314.898 371.716 314.293 370.089 314.293C368.35 314.293 366.912 314.927 365.778 316.194C364.643 317.461 364.085 319.181 364.104 321.356H376.018ZM416.724 317.782L408.866 319.2C408.601 317.631 407.996 316.449 407.051 315.655C406.124 314.86 404.914 314.463 403.42 314.463C401.434 314.463 399.846 315.153 398.654 316.534C397.482 317.896 396.896 320.184 396.896 323.399C396.896 326.973 397.491 329.497 398.683 330.972C399.893 332.447 401.51 333.185 403.533 333.185C405.046 333.185 406.285 332.759 407.249 331.908C408.214 331.039 408.895 329.554 409.292 327.455L417.121 328.788C416.308 332.381 414.747 335.095 412.44 336.929C410.133 338.764 407.041 339.681 403.165 339.681C398.758 339.681 395.241 338.291 392.612 335.511C390.003 332.731 388.698 328.883 388.698 323.966C388.698 318.992 390.012 315.125 392.641 312.364C395.269 309.584 398.825 308.194 403.306 308.194C406.975 308.194 409.887 308.989 412.043 310.577C414.218 312.147 415.778 314.548 416.724 317.782ZM420.95 323.512C420.95 320.865 421.603 318.302 422.907 315.825C424.212 313.347 426.056 311.456 428.439 310.152C430.841 308.847 433.516 308.194 436.467 308.194C441.024 308.194 444.759 309.679 447.671 312.648C450.583 315.598 452.04 319.333 452.04 323.852C452.04 328.41 450.565 332.192 447.614 335.199C444.683 338.187 440.986 339.681 436.523 339.681C433.762 339.681 431.124 339.057 428.609 337.809C426.113 336.561 424.212 334.736 422.907 332.334C421.603 329.913 420.95 326.973 420.95 323.512ZM429.12 323.938C429.12 326.925 429.829 329.214 431.247 330.802C432.665 332.391 434.415 333.185 436.495 333.185C438.575 333.185 440.315 332.391 441.714 330.802C443.133 329.214 443.842 326.907 443.842 323.881C443.842 320.931 443.133 318.661 441.714 317.073C440.315 315.484 438.575 314.69 436.495 314.69C434.415 314.69 432.665 315.484 431.247 317.073C429.829 318.661 429.12 320.95 429.12 323.938ZM465.939 339H457.968V308.875H465.372V313.158C466.639 311.135 467.773 309.802 468.776 309.159C469.797 308.516 470.95 308.194 472.236 308.194C474.052 308.194 475.801 308.695 477.484 309.698L475.016 316.647C473.674 315.777 472.425 315.343 471.272 315.343C470.156 315.343 469.211 315.655 468.435 316.279C467.66 316.884 467.045 317.99 466.591 319.597C466.157 321.205 465.939 324.571 465.939 329.696V339ZM508.574 339H501.17V334.575C499.941 336.296 498.485 337.582 496.802 338.433C495.137 339.265 493.454 339.681 491.752 339.681C488.292 339.681 485.323 338.291 482.845 335.511C480.387 332.712 479.158 328.817 479.158 323.824C479.158 318.718 480.359 314.841 482.76 312.194C485.162 309.527 488.197 308.194 491.866 308.194C495.232 308.194 498.144 309.594 500.603 312.392V297.415H508.574V339ZM487.299 323.285C487.299 326.5 487.743 328.826 488.632 330.263C489.918 332.343 491.715 333.383 494.022 333.383C495.856 333.383 497.416 332.608 498.702 331.057C499.988 329.488 500.631 327.152 500.631 324.051C500.631 320.59 500.007 318.104 498.759 316.591C497.511 315.059 495.913 314.293 493.965 314.293C492.074 314.293 490.485 315.049 489.199 316.562C487.932 318.056 487.299 320.297 487.299 323.285ZM513.651 330.405L521.65 329.185C521.991 330.736 522.681 331.918 523.721 332.731C524.761 333.525 526.217 333.922 528.09 333.922C530.151 333.922 531.701 333.544 532.742 332.788C533.441 332.258 533.791 331.549 533.791 330.66C533.791 330.055 533.602 329.554 533.224 329.157C532.827 328.779 531.938 328.429 530.557 328.107C524.128 326.689 520.052 325.394 518.332 324.221C515.949 322.595 514.757 320.335 514.757 317.442C514.757 314.832 515.788 312.638 517.849 310.861C519.911 309.083 523.107 308.194 527.437 308.194C531.56 308.194 534.623 308.866 536.628 310.208C538.632 311.551 540.013 313.537 540.769 316.165L533.252 317.555C532.931 316.383 532.316 315.484 531.408 314.86C530.52 314.236 529.243 313.924 527.579 313.924C525.48 313.924 523.976 314.217 523.069 314.804C522.464 315.22 522.161 315.759 522.161 316.42C522.161 316.988 522.426 317.47 522.955 317.867C523.674 318.397 526.151 319.144 530.387 320.108C534.642 321.073 537.611 322.254 539.294 323.654C540.958 325.072 541.79 327.048 541.79 329.582C541.79 332.343 540.637 334.717 538.33 336.702C536.023 338.688 532.609 339.681 528.09 339.681C523.986 339.681 520.733 338.849 518.332 337.185C515.949 335.52 514.389 333.261 513.651 330.405Z" fill="#273C99"/>
<path d="M753.211 597.249H626.98C614.202 597.249 606.676 583.302 613.916 573.071L695.979 457.15L753.211 597.249Z" fill="#8FB9D1"/>
<path d="M751.59 591.03H627.908C626.016 591.041 624.158 590.531 622.536 589.558C620.913 588.585 619.59 587.184 618.709 585.51C617.859 583.907 617.473 582.098 617.595 580.287C617.717 578.477 618.341 576.736 619.399 575.261L691.865 471.981C691.962 471.846 692.107 471.754 692.27 471.725C692.434 471.696 692.602 471.731 692.739 471.825C692.806 471.872 692.864 471.933 692.907 472.003C692.951 472.072 692.981 472.15 692.994 472.231C693.008 472.312 693.006 472.396 692.987 472.476C692.969 472.556 692.934 472.632 692.887 472.699L620.392 575.96C619.468 577.25 618.922 578.772 618.816 580.356C618.711 581.939 619.049 583.52 619.794 584.921C620.56 586.406 621.725 587.647 623.159 588.504C624.593 589.361 626.238 589.799 627.908 589.77H751.59C751.744 589.788 751.886 589.863 751.989 589.979C752.092 590.095 752.149 590.245 752.149 590.4C752.149 590.555 752.092 590.705 751.989 590.821C751.886 590.937 751.744 591.011 751.59 591.03Z" fill="black"/>
<path d="M768.783 574.386H653.455C653.289 574.386 653.13 574.32 653.012 574.203C652.895 574.085 652.829 573.926 652.829 573.76C652.829 573.594 652.895 573.435 653.012 573.318C653.13 573.201 653.289 573.135 653.455 573.135H768.783C768.949 573.135 769.108 573.201 769.226 573.318C769.343 573.435 769.409 573.594 769.409 573.76C769.409 573.926 769.343 574.085 769.226 574.203C769.108 574.32 768.949 574.386 768.783 574.386Z" fill="black"/>
<path d="M1206.48 597.25H739.133C721.543 597.25 704.772 583.377 701.672 566.255L626.702 152.593C623.602 135.471 635.35 121.598 652.94 121.598H1120.29C1137.88 121.598 1154.65 135.471 1157.76 152.593L1232.74 566.255C1235.82 583.377 1224.07 597.25 1206.48 597.25Z" fill="#C2D9E5"/>
<path d="M675.343 386.116C675.197 386.116 675.056 386.064 674.945 385.97C674.834 385.876 674.76 385.745 674.736 385.601L665.288 333.465C665.261 333.301 665.299 333.134 665.393 332.998C665.488 332.863 665.631 332.769 665.794 332.738C665.957 332.713 666.123 332.752 666.258 332.846C666.393 332.94 666.487 333.082 666.521 333.244L675.96 385.381C675.975 385.461 675.975 385.544 675.959 385.624C675.942 385.704 675.91 385.781 675.864 385.848C675.818 385.916 675.758 385.974 675.689 386.018C675.621 386.063 675.543 386.093 675.463 386.107L675.343 386.116Z" fill="black"/>
<path d="M1220.56 597.25H753.209C735.619 597.25 718.848 583.377 715.738 566.255L640.788 152.593C637.678 135.471 649.426 121.598 667.016 121.598H1134.37C1151.96 121.598 1168.73 135.471 1171.83 152.593L1246.79 566.255C1249.9 583.377 1238.15 597.25 1220.56 597.25Z" fill="#E2EEF5"/>
<path d="M1051.21 597.25H1132.44L823.366 121.598H742.141L1051.21 597.25ZM900.304 121.598H859.696L1168.76 597.25H1209.38L900.304 121.598Z" fill="white"/>
<path d="M1203.38 580H764.139L683.199 133.346H1122.44L1203.38 580Z" fill="white"/>
<path d="M991.769 245.789H962.716C959.745 245.81 956.857 244.803 954.543 242.938C952.23 241.073 950.632 238.466 950.02 235.558L943.7 203.358C943.144 200.736 941.697 198.387 939.606 196.71C937.515 195.033 934.908 194.131 932.228 194.158H918.787C918.621 194.158 918.462 194.092 918.345 193.975C918.227 193.857 918.161 193.698 918.161 193.532C918.161 193.366 918.227 193.207 918.345 193.09C918.462 192.972 918.621 192.907 918.787 192.907H932.228C935.199 192.885 938.087 193.893 940.401 195.757C942.714 197.622 944.312 200.229 944.924 203.137L951.253 235.337C951.809 237.958 953.254 240.306 955.343 241.982C957.433 243.659 960.037 244.562 962.716 244.537H991.769C991.935 244.537 992.094 244.603 992.211 244.721C992.329 244.838 992.395 244.997 992.395 245.163C992.395 245.329 992.329 245.488 992.211 245.605C992.094 245.723 991.935 245.789 991.769 245.789ZM1081.72 380.671C1081.57 380.669 1081.43 380.617 1081.32 380.523C1081.2 380.429 1081.13 380.299 1081.1 380.156L1075.76 352.316C1075.75 352.236 1075.75 352.153 1075.76 352.073C1075.78 351.992 1075.81 351.916 1075.86 351.848C1075.91 351.781 1075.96 351.723 1076.03 351.679C1076.1 351.634 1076.18 351.604 1076.26 351.589C1076.34 351.573 1076.42 351.574 1076.51 351.59C1076.59 351.606 1076.66 351.638 1076.73 351.685C1076.8 351.731 1076.86 351.79 1076.9 351.859C1076.95 351.928 1076.98 352.005 1077 352.086L1082.33 379.926C1082.35 380.006 1082.35 380.089 1082.33 380.169C1082.31 380.249 1082.28 380.326 1082.24 380.393C1082.19 380.461 1082.13 380.519 1082.06 380.563C1081.99 380.608 1081.92 380.638 1081.84 380.652L1081.72 380.671ZM1026.76 461.705H1000.46C1000.3 461.705 1000.14 461.639 1000.02 461.522C999.903 461.404 999.837 461.245 999.837 461.079C999.837 460.913 999.903 460.754 1000.02 460.637C1000.14 460.52 1000.3 460.454 1000.46 460.454H1026.76C1026.92 460.454 1027.08 460.52 1027.2 460.637C1027.32 460.754 1027.38 460.913 1027.38 461.079C1027.38 461.245 1027.32 461.404 1027.2 461.522C1027.08 461.639 1026.92 461.705 1026.76 461.705ZM896.376 424.684C896.231 424.683 896.091 424.632 895.979 424.54C895.867 424.448 895.789 424.32 895.76 424.178L894.665 418.658C894.306 416.862 894.351 415.008 894.798 413.232C895.246 411.456 896.083 409.802 897.25 408.391C898.477 406.896 900.022 405.695 901.773 404.875C903.524 404.055 905.437 403.638 907.37 403.653H926.34C928.085 403.662 929.81 403.283 931.39 402.543C932.97 401.803 934.366 400.721 935.475 399.375C936.523 398.111 937.276 396.629 937.678 395.037C938.081 393.446 938.123 391.785 937.803 390.174L936.69 384.654C936.674 384.573 936.674 384.49 936.69 384.409C936.707 384.328 936.739 384.251 936.785 384.183C936.831 384.115 936.89 384.056 936.959 384.011C937.028 383.965 937.106 383.934 937.187 383.918C937.267 383.901 937.35 383.9 937.431 383.915C937.512 383.93 937.589 383.962 937.657 384.007C937.726 384.052 937.785 384.111 937.83 384.18C937.876 384.248 937.907 384.325 937.923 384.406L939.027 389.926C939.386 391.722 939.34 393.575 938.893 395.352C938.446 397.128 937.608 398.782 936.441 400.193C935.213 401.686 933.668 402.886 931.917 403.706C930.166 404.526 928.255 404.944 926.322 404.931H907.352C905.607 404.92 903.881 405.298 902.301 406.038C900.72 406.778 899.325 407.862 898.216 409.209C897.169 410.473 896.416 411.955 896.014 413.547C895.611 415.138 895.568 416.799 895.889 418.409L896.983 423.93C897.001 424.01 897.002 424.093 896.987 424.174C896.972 424.255 896.94 424.332 896.895 424.4C896.849 424.469 896.791 424.528 896.722 424.573C896.654 424.619 896.577 424.65 896.496 424.666L896.376 424.684ZM876.266 323.428C876.125 323.429 875.988 323.383 875.878 323.296C875.767 323.209 875.69 323.087 875.658 322.95L866.505 283.711C866.486 283.631 866.483 283.549 866.496 283.468C866.509 283.387 866.539 283.309 866.583 283.24C866.626 283.171 866.683 283.111 866.751 283.064C866.818 283.017 866.894 282.983 866.974 282.966C867.135 282.93 867.303 282.959 867.443 283.047C867.582 283.135 867.682 283.275 867.719 283.435L876.919 322.664C876.952 322.826 876.922 322.995 876.835 323.135C876.748 323.276 876.61 323.377 876.45 323.419L876.266 323.428Z" fill="#F94151"/>
<path d="M1193.87 400.175C1192.88 400.15 1191.92 399.791 1191.16 399.157C1190.39 398.523 1189.86 397.65 1189.65 396.679L1176.19 322.397C1176.1 321.941 1176.11 321.47 1176.22 321.018C1176.33 320.566 1176.54 320.145 1176.84 319.784C1177.14 319.424 1177.53 319.137 1177.96 318.944C1178.39 318.751 1178.86 318.658 1179.34 318.671C1180.33 318.688 1181.29 319.043 1182.06 319.679C1182.83 320.314 1183.36 321.192 1183.56 322.167L1197.02 396.458C1197.11 396.912 1197.11 397.382 1196.99 397.833C1196.88 398.284 1196.67 398.704 1196.38 399.061C1196.07 399.422 1195.68 399.709 1195.25 399.902C1194.82 400.094 1194.35 400.188 1193.87 400.175ZM1179.38 319.922C1179.09 319.91 1178.8 319.964 1178.54 320.078C1178.27 320.193 1178.03 320.366 1177.84 320.585C1177.66 320.804 1177.54 321.061 1177.48 321.334C1177.41 321.608 1177.41 321.893 1177.47 322.167L1190.93 396.458C1191.09 397.14 1191.47 397.752 1192.01 398.198C1192.55 398.644 1193.22 398.899 1193.92 398.923C1194.21 398.936 1194.5 398.883 1194.77 398.768C1195.04 398.654 1195.27 398.48 1195.46 398.261C1195.64 398.043 1195.77 397.787 1195.83 397.513C1195.9 397.238 1195.9 396.953 1195.83 396.679L1182.33 322.397C1182.18 321.717 1181.81 321.105 1181.28 320.658C1180.75 320.21 1180.08 319.951 1179.38 319.922Z" fill="black"/>
<path d="M925.322 283.574H754.206C752.003 283.519 749.882 282.726 748.184 281.321C746.485 279.916 745.308 277.982 744.841 275.828L727.398 179.751C727.184 178.793 727.194 177.797 727.429 176.843C727.663 175.889 728.115 175.002 728.75 174.252C729.384 173.501 730.184 172.908 731.085 172.518C731.987 172.129 732.967 171.953 733.948 172.005H905.065C907.268 172.06 909.389 172.854 911.087 174.258C912.785 175.663 913.963 177.598 914.43 179.751L931.91 275.828C932.123 276.79 932.111 277.788 931.873 278.744C931.636 279.7 931.181 280.589 930.542 281.339C929.904 282.09 929.101 282.682 928.195 283.07C927.289 283.458 926.306 283.63 925.322 283.574Z" fill="white"/>
<path d="M925.321 284.2H754.205C751.855 284.136 749.594 283.286 747.784 281.784C745.975 280.283 744.721 278.219 744.223 275.92L726.753 179.863C726.536 178.824 726.552 177.75 726.802 176.719C727.052 175.687 727.529 174.725 728.197 173.901C728.904 173.082 729.784 172.431 730.774 171.994C731.764 171.558 732.838 171.349 733.92 171.38H905.036C907.387 171.441 909.65 172.291 911.46 173.792C913.27 175.294 914.523 177.361 915.018 179.66L932.433 275.736C932.649 276.776 932.631 277.85 932.379 278.881C932.128 279.913 931.65 280.875 930.979 281.698C930.278 282.505 929.407 283.148 928.43 283.581C927.452 284.013 926.39 284.225 925.321 284.2ZM733.947 172.604C733.051 172.574 732.158 172.744 731.336 173.102C730.513 173.461 729.78 173.997 729.191 174.674C728.638 175.357 728.246 176.156 728.042 177.01C727.838 177.865 727.829 178.755 728.013 179.614L745.419 275.69C745.859 277.701 746.96 279.505 748.546 280.816C750.132 282.127 752.112 282.868 754.168 282.922H925.285C926.184 282.951 927.078 282.779 927.902 282.42C928.726 282.06 929.46 281.521 930.05 280.842C930.601 280.16 930.992 279.363 931.196 278.51C931.4 277.657 931.411 276.769 931.228 275.911L913.849 179.863C913.41 177.852 912.309 176.048 910.723 174.737C909.137 173.426 907.157 172.685 905.1 172.631L733.947 172.604Z" fill="#2389AF"/>
<path d="M923.711 275.174H752.733L735.557 180.404H906.544L923.711 275.174Z" fill="white"/>
<path d="M923.713 275.801H752.734C752.588 275.799 752.447 275.747 752.334 275.653C752.222 275.559 752.145 275.43 752.118 275.286L734.942 180.525C734.927 180.434 734.932 180.342 734.956 180.253C734.98 180.164 735.022 180.081 735.08 180.01C735.139 179.941 735.212 179.886 735.295 179.847C735.378 179.809 735.467 179.789 735.558 179.789H906.546C906.693 179.789 906.835 179.84 906.948 179.935C907.06 180.029 907.136 180.16 907.162 180.304L924.329 275.065C924.347 275.154 924.343 275.246 924.319 275.334C924.295 275.422 924.251 275.503 924.191 275.571C924.134 275.644 924.062 275.702 923.979 275.742C923.896 275.782 923.805 275.802 923.713 275.801ZM753.259 274.55H922.967L906.021 181.031H736.313L753.259 274.55Z" fill="black"/>
<path d="M912.853 267.114H759.796L745.546 188.463H898.603L912.853 267.114Z" fill="#FFEBDF"/>
<path d="M842.474 264.134C842.34 264.134 842.21 264.091 842.102 264.012C841.995 263.932 841.915 263.82 841.876 263.692L821.333 195.29L821.204 227.803C821.204 227.885 821.188 227.966 821.156 228.041C821.125 228.116 821.078 228.185 821.02 228.242C820.962 228.3 820.893 228.345 820.817 228.375C820.741 228.406 820.66 228.421 820.578 228.419H811.029C810.906 228.42 810.785 228.385 810.682 228.318C810.579 228.251 810.498 228.155 810.449 228.042L808.076 222.476L806.788 236.166C806.777 236.305 806.72 236.436 806.626 236.538C806.532 236.641 806.406 236.709 806.269 236.733C806.131 236.756 805.99 236.733 805.868 236.667C805.745 236.601 805.648 236.496 805.592 236.368L794.396 211.694L788.876 238.678C788.85 238.807 788.783 238.925 788.685 239.014C788.588 239.103 788.465 239.159 788.333 239.174C788.201 239.193 788.067 239.169 787.95 239.104C787.834 239.039 787.742 238.938 787.689 238.816L776.861 215.595L774.432 227.904C774.406 228.046 774.331 228.175 774.22 228.267C774.109 228.36 773.97 228.41 773.825 228.41H744.137C743.971 228.41 743.812 228.344 743.695 228.227C743.578 228.11 743.512 227.951 743.512 227.785C743.512 227.619 743.578 227.46 743.695 227.342C743.812 227.225 743.971 227.159 744.137 227.159H773.301L775.987 213.479C776.014 213.348 776.081 213.23 776.178 213.139C776.275 213.049 776.398 212.991 776.53 212.973C776.661 212.956 776.795 212.982 776.91 213.047C777.026 213.111 777.118 213.211 777.174 213.331L788.02 236.571L793.54 209.559C793.567 209.428 793.635 209.31 793.735 209.22C793.834 209.131 793.959 209.075 794.092 209.062C794.223 209.044 794.356 209.069 794.471 209.134C794.585 209.199 794.676 209.3 794.727 209.421L805.767 233.709L807.064 219.909C807.078 219.772 807.138 219.643 807.233 219.543C807.329 219.443 807.454 219.377 807.591 219.356C807.728 219.335 807.867 219.36 807.988 219.427C808.109 219.494 808.205 219.599 808.26 219.725L811.443 227.168H819.971L820.1 191.095C820.101 190.945 820.155 190.801 820.253 190.688C820.351 190.575 820.486 190.5 820.634 190.478C820.783 190.455 820.935 190.487 821.063 190.568C821.19 190.649 821.283 190.775 821.324 190.92L841.784 259L840.772 195.98C840.768 195.83 840.819 195.683 840.916 195.568C841.012 195.453 841.148 195.377 841.296 195.354C841.446 195.33 841.598 195.36 841.727 195.44C841.855 195.519 841.951 195.642 841.996 195.787L851.987 227.803L853.514 205.208C853.522 205.061 853.582 204.922 853.683 204.816C853.784 204.71 853.92 204.643 854.066 204.628C854.21 204.607 854.357 204.639 854.479 204.719C854.601 204.799 854.689 204.92 854.728 205.06L865.105 238.374L865.63 227.242C865.639 227.081 865.709 226.931 865.825 226.82C865.941 226.709 866.095 226.646 866.255 226.644H915.014C915.18 226.644 915.339 226.71 915.457 226.827C915.574 226.944 915.64 227.104 915.64 227.269C915.64 227.435 915.574 227.594 915.457 227.712C915.339 227.829 915.18 227.895 915.014 227.895H866.853L866.191 241.98C866.183 242.128 866.124 242.268 866.023 242.376C865.922 242.483 865.786 242.552 865.639 242.569C865.493 242.593 865.344 242.561 865.22 242.482C865.097 242.402 865.006 242.279 864.967 242.137L854.535 208.658L853.008 231.253C852.996 231.398 852.935 231.535 852.835 231.641C852.734 231.746 852.6 231.814 852.456 231.833C852.311 231.852 852.163 231.819 852.04 231.74C851.917 231.661 851.827 231.54 851.784 231.4L842.078 200.313L843.1 263.499C843.103 263.65 843.052 263.796 842.956 263.911C842.859 264.027 842.724 264.103 842.575 264.125L842.474 264.134Z" fill="#E45C26"/>
<path d="M1124.18 352.207H1017.93C1015.72 352.15 1013.6 351.355 1011.9 349.948C1010.21 348.542 1009.03 346.606 1008.56 344.451L980.419 189.163C980.206 188.204 980.218 187.208 980.454 186.254C980.69 185.3 981.143 184.414 981.778 183.664C982.413 182.914 983.213 182.321 984.115 181.931C985.017 181.541 985.997 181.365 986.979 181.417H1093.24C1095.44 181.472 1097.56 182.266 1099.26 183.67C1100.96 185.075 1102.13 187.01 1102.6 189.163L1130.74 344.451C1130.96 345.411 1130.94 346.407 1130.71 347.362C1130.47 348.316 1130.02 349.203 1129.38 349.954C1128.75 350.704 1127.95 351.298 1127.05 351.689C1126.15 352.08 1125.17 352.257 1124.18 352.207Z" fill="white"/>
<path d="M1124.18 352.822H1017.92C1015.57 352.759 1013.31 351.909 1011.5 350.408C1009.69 348.906 1008.44 346.841 1007.94 344.542L979.801 189.272C979.584 188.235 979.602 187.161 979.853 186.132C980.105 185.102 980.583 184.141 981.254 183.32C981.96 182.5 982.84 181.847 983.83 181.409C984.82 180.972 985.895 180.76 986.976 180.79H1093.23C1095.59 180.851 1097.85 181.7 1099.66 183.202C1101.47 184.704 1102.72 186.77 1103.22 189.07L1131.36 344.34C1131.58 345.379 1131.56 346.453 1131.31 347.485C1131.05 348.516 1130.58 349.479 1129.9 350.301C1129.2 351.121 1128.32 351.773 1127.33 352.209C1126.34 352.645 1125.26 352.855 1124.18 352.822ZM986.976 182.041C986.077 182.012 985.183 182.183 984.359 182.543C983.535 182.903 982.801 183.441 982.211 184.12C981.663 184.804 981.273 185.601 981.069 186.454C980.865 187.306 980.853 188.194 981.033 189.052L1009.18 344.34C1009.62 346.35 1010.73 348.154 1012.31 349.465C1013.9 350.776 1015.88 351.517 1017.93 351.571H1124.18C1125.08 351.601 1125.97 351.431 1126.8 351.073C1127.62 350.715 1128.36 350.178 1128.95 349.501C1129.5 348.816 1129.89 348.018 1130.09 347.163C1130.3 346.309 1130.31 345.42 1130.13 344.56L1101.98 189.272C1101.54 187.262 1100.44 185.457 1098.86 184.147C1097.27 182.836 1095.29 182.094 1093.23 182.041H986.976Z" fill="black"/>
<path d="M1070.69 181.417C1067.71 164.985 1051.6 151.654 1034.71 151.654C1017.82 151.654 1006.54 164.985 1009.52 181.417C1012.5 197.848 1028.6 211.179 1045.49 211.179C1062.39 211.179 1073.66 197.857 1070.69 181.417Z" fill="white"/>
<path d="M1046.68 175.464C1047.54 180.193 1045.03 184.029 1041.07 184.029C1037.11 184.029 1033.21 180.193 1032.36 175.464C1031.5 170.735 1034.01 166.898 1037.97 166.898C1041.93 166.898 1045.83 170.762 1046.68 175.464ZM1026.87 205.723C1032.45 209.238 1038.9 211.147 1045.5 211.243C1051.85 211.369 1058.03 209.197 1062.91 205.125C1060.15 196.513 1051.32 189.88 1042.12 189.88C1032.7 189.816 1026.2 196.771 1026.87 205.723Z" fill="black"/>
<path d="M1096.78 233.287H1002.24L1000.46 223.498H1095L1096.78 233.287Z" fill="#C2D9E5"/>
<path d="M1096.78 233.913H1002.24C1002.1 233.913 1001.95 233.862 1001.84 233.768C1001.73 233.673 1001.65 233.543 1001.63 233.398L999.85 223.618C999.834 223.528 999.838 223.435 999.861 223.346C999.885 223.257 999.927 223.174 999.986 223.103C1000.04 223.032 1000.12 222.975 1000.2 222.935C1000.28 222.896 1000.37 222.874 1000.47 222.873H1095.01C1095.16 222.873 1095.3 222.925 1095.41 223.019C1095.52 223.114 1095.6 223.244 1095.62 223.388L1097.4 233.177C1097.41 233.267 1097.41 233.36 1097.39 233.449C1097.36 233.537 1097.32 233.621 1097.27 233.692C1097.21 233.762 1097.13 233.818 1097.05 233.856C1096.96 233.894 1096.87 233.913 1096.78 233.913ZM1002.75 232.662H1096.03L1094.49 224.124H1001.21L1002.75 232.662Z" fill="white"/>
<path d="M1005.66 252.211H1031.22L1029.45 242.422H1003.9L1005.66 252.211Z" fill="#C2D9E5"/>
<path d="M1031.26 252.836H1005.66C1005.51 252.835 1005.37 252.783 1005.26 252.689C1005.15 252.595 1005.07 252.465 1005.04 252.321L1003.28 242.523C1003.26 242.435 1003.26 242.343 1003.28 242.255C1003.31 242.167 1003.35 242.086 1003.41 242.017C1003.46 241.946 1003.54 241.888 1003.62 241.848C1003.7 241.808 1003.79 241.787 1003.89 241.787H1029.42C1029.57 241.789 1029.71 241.841 1029.82 241.935C1029.94 242.029 1030.01 242.159 1030.04 242.302L1031.82 252.091C1031.83 252.18 1031.83 252.272 1031.8 252.359C1031.78 252.447 1031.74 252.528 1031.68 252.597C1031.63 252.663 1031.57 252.717 1031.5 252.759C1031.42 252.8 1031.35 252.826 1031.26 252.836ZM1006.23 251.585H1030.52L1028.96 243.048H1004.64L1006.23 251.585Z" fill="white"/>
<path d="M1009.09 271.135H1034.65L1032.88 261.346H1007.32L1009.09 271.135Z" fill="#C2D9E5"/>
<path d="M1034.65 271.761H1009.1C1008.95 271.759 1008.81 271.707 1008.7 271.613C1008.58 271.519 1008.51 271.389 1008.48 271.246L1006.7 261.457C1006.69 261.366 1006.69 261.273 1006.72 261.184C1006.74 261.096 1006.78 261.013 1006.84 260.942C1006.9 260.873 1006.97 260.817 1007.06 260.779C1007.14 260.741 1007.23 260.721 1007.32 260.721H1032.88C1033.02 260.721 1033.17 260.772 1033.28 260.866C1033.39 260.96 1033.47 261.091 1033.49 261.236L1035.27 271.043C1035.28 271.132 1035.28 271.224 1035.26 271.311C1035.23 271.398 1035.19 271.48 1035.13 271.549C1035.07 271.617 1035 271.672 1034.92 271.708C1034.83 271.745 1034.74 271.763 1034.65 271.761ZM1009.62 270.51H1033.9L1032.35 261.972H1008.07L1009.62 270.51Z" fill="white"/>
<path d="M1012.52 290.051H1038.07L1036.31 280.262H1010.75L1012.52 290.051Z" fill="#C2D9E5"/>
<path d="M1038.07 290.675H1012.53C1012.38 290.676 1012.24 290.624 1012.12 290.53C1012.01 290.436 1011.94 290.305 1011.91 290.16L1010.11 280.381C1010.09 280.29 1010.09 280.196 1010.12 280.107C1010.14 280.018 1010.18 279.935 1010.24 279.865C1010.3 279.795 1010.38 279.739 1010.46 279.7C1010.54 279.662 1010.63 279.643 1010.72 279.645H1036.28C1036.43 279.644 1036.57 279.696 1036.68 279.79C1036.79 279.884 1036.87 280.015 1036.9 280.16L1038.66 289.939C1038.68 290.03 1038.68 290.122 1038.65 290.211C1038.63 290.3 1038.59 290.383 1038.53 290.455C1038.48 290.521 1038.41 290.575 1038.33 290.613C1038.25 290.651 1038.16 290.672 1038.07 290.675ZM1013.04 289.443H1037.33L1035.78 280.914H1011.5L1013.04 289.443Z" fill="white"/>
<path d="M1099.34 247.943H1045.38C1045.21 247.943 1045.05 247.877 1044.94 247.759C1044.82 247.642 1044.75 247.483 1044.75 247.317C1044.75 247.151 1044.82 246.992 1044.94 246.875C1045.05 246.757 1045.21 246.691 1045.38 246.691H1099.34C1099.51 246.691 1099.67 246.757 1099.79 246.875C1099.9 246.992 1099.97 247.151 1099.97 247.317C1099.97 247.483 1099.9 247.642 1099.79 247.759C1099.67 247.877 1099.51 247.943 1099.34 247.943ZM1102.75 266.867H1048.81C1048.64 266.867 1048.48 266.801 1048.37 266.684C1048.25 266.567 1048.18 266.407 1048.18 266.242C1048.18 266.076 1048.25 265.917 1048.37 265.799C1048.48 265.682 1048.64 265.616 1048.81 265.616H1102.75C1102.91 265.616 1103.07 265.682 1103.19 265.799C1103.31 265.917 1103.37 266.076 1103.37 266.242C1103.37 266.407 1103.31 266.567 1103.19 266.684C1103.07 266.801 1102.91 266.867 1102.75 266.867ZM1106.18 285.764H1052.24C1052.07 285.764 1051.92 285.698 1051.8 285.581C1051.68 285.464 1051.62 285.304 1051.62 285.139C1051.62 284.973 1051.68 284.813 1051.8 284.696C1051.92 284.579 1052.07 284.513 1052.24 284.513H1106.18C1106.34 284.513 1106.5 284.579 1106.62 284.696C1106.74 284.813 1106.8 284.973 1106.8 285.139C1106.8 285.304 1106.74 285.464 1106.62 285.581C1106.5 285.698 1106.34 285.764 1106.18 285.764ZM1108.98 301.285H1014.45C1014.28 301.285 1014.12 301.219 1014.01 301.101C1013.89 300.984 1013.82 300.825 1013.82 300.659C1013.82 300.493 1013.89 300.334 1014.01 300.217C1014.12 300.099 1014.28 300.033 1014.45 300.033H1108.98C1109.15 300.033 1109.31 300.099 1109.43 300.217C1109.54 300.334 1109.61 300.493 1109.61 300.659C1109.61 300.825 1109.54 300.984 1109.43 301.101C1109.31 301.219 1109.15 301.285 1108.98 301.285ZM1087.69 323.954H1018.55C1018.39 323.954 1018.23 323.888 1018.11 323.77C1017.99 323.653 1017.93 323.494 1017.93 323.328C1017.93 323.162 1017.99 323.003 1018.11 322.886C1018.23 322.768 1018.39 322.702 1018.55 322.702H1087.69C1087.85 322.702 1088.01 322.768 1088.13 322.886C1088.25 323.003 1088.31 323.162 1088.31 323.328C1088.31 323.494 1088.25 323.653 1088.13 323.77C1088.01 323.888 1087.85 323.954 1087.69 323.954ZM1096.58 315.637H1017.04C1016.88 315.637 1016.72 315.571 1016.6 315.454C1016.48 315.336 1016.42 315.177 1016.42 315.011C1016.42 314.845 1016.48 314.686 1016.6 314.569C1016.72 314.451 1016.88 314.386 1017.04 314.386H1096.58C1096.75 314.386 1096.91 314.451 1097.03 314.569C1097.14 314.686 1097.21 314.845 1097.21 315.011C1097.21 315.177 1097.14 315.336 1097.03 315.454C1096.91 315.571 1096.75 315.637 1096.58 315.637Z" fill="black"/>
<path d="M1045.5 211.803C1028.35 211.803 1011.93 198.224 1008.91 181.526C1007.45 173.457 1009.29 165.885 1014.09 160.089C1018.89 154.293 1026.3 151.027 1034.71 151.027C1051.86 151.027 1068.28 164.616 1071.3 181.305C1072.76 189.373 1070.93 196.945 1066.12 202.741C1061.31 208.537 1053.92 211.803 1045.5 211.803ZM1034.71 152.279C1026.67 152.279 1019.68 155.342 1015.04 160.89C1010.41 166.437 1008.74 173.604 1010.14 181.305C1013.07 197.433 1028.93 210.552 1045.5 210.552C1053.55 210.552 1060.53 207.488 1065.16 201.941C1069.8 196.393 1071.47 189.226 1070.08 181.526C1067.14 165.398 1051.29 152.279 1034.71 152.279Z" fill="#8FB9D1"/>
<path d="M973.611 384.461H771.832C769.629 384.406 767.508 383.612 765.81 382.207C764.111 380.803 762.934 378.868 762.467 376.714L754.104 330.548C753.892 329.589 753.904 328.593 754.139 327.639C754.375 326.685 754.828 325.798 755.463 325.049C756.098 324.299 756.898 323.706 757.8 323.316C758.702 322.926 759.682 322.75 760.664 322.802H962.443C964.646 322.857 966.767 323.65 968.465 325.055C970.164 326.46 971.341 328.394 971.808 330.548L980.171 376.714C980.383 377.674 980.371 378.669 980.136 379.623C979.9 380.577 979.447 381.464 978.812 382.214C978.177 382.964 977.377 383.557 976.475 383.947C975.573 384.336 974.593 384.512 973.611 384.461Z" fill="white"/>
<path d="M973.61 385.124H771.831C769.48 385.059 767.219 384.209 765.41 382.708C763.6 381.206 762.346 379.142 761.849 376.844L753.431 330.668C753.214 329.63 753.231 328.556 753.481 327.525C753.731 326.494 754.207 325.531 754.875 324.707C755.583 323.886 756.464 323.233 757.456 322.795C758.447 322.358 759.524 322.146 760.607 322.177H962.441C964.792 322.239 967.054 323.089 968.864 324.591C970.674 326.092 971.927 328.158 972.423 330.457L980.786 376.623C981.001 377.661 980.983 378.735 980.734 379.766C980.484 380.797 980.008 381.759 979.341 382.584C978.635 383.408 977.754 384.063 976.763 384.502C975.771 384.941 974.694 385.154 973.61 385.124ZM760.616 323.483C759.717 323.452 758.822 323.623 757.998 323.982C757.173 324.342 756.439 324.882 755.851 325.562C755.298 326.244 754.906 327.041 754.702 327.894C754.498 328.748 754.488 329.636 754.673 330.494L763.036 376.66C763.488 378.667 764.6 380.465 766.195 381.766C767.789 383.067 769.773 383.795 771.831 383.836H973.61C974.508 383.866 975.402 383.696 976.226 383.338C977.05 382.98 977.784 382.443 978.375 381.766C978.928 381.082 979.32 380.284 979.524 379.429C979.728 378.574 979.738 377.684 979.553 376.825L971.19 330.668C970.752 328.657 969.652 326.85 968.066 325.537C966.48 324.224 964.499 323.482 962.441 323.428L760.616 323.483Z" fill="black"/>
<path d="M815.188 367.817H811.232L806.632 342.324L799.217 345.158L798.591 341.689L809.107 337.577H809.723L815.188 367.817ZM846.964 367.817H826.724L826.228 365.057L834.839 353.484C835.855 352.174 836.699 350.739 837.35 349.215C837.753 348.127 837.852 346.95 837.635 345.811C837.392 344.306 836.622 342.937 835.464 341.947C834.308 340.942 832.819 340.404 831.287 340.438C830.501 340.37 829.709 340.482 828.971 340.764C828.233 341.046 827.569 341.491 827.028 342.066C826.569 342.713 826.259 343.454 826.12 344.235C825.982 345.016 826.019 345.818 826.228 346.584H822.29C821.793 343.824 822.29 341.579 823.826 339.868C825.363 338.156 827.617 337.282 830.708 337.282C833.294 337.193 835.836 337.97 837.93 339.49C839.831 340.91 841.11 343.01 841.499 345.351C842.033 348.313 840.729 351.84 837.589 355.931L830.892 364.68H846.421L846.964 367.817ZM868.206 354.983C869.016 359.467 868.832 362.794 867.654 364.965C866.477 367.137 864.217 368.225 860.874 368.231C859.404 368.296 857.936 368.045 856.571 367.494C855.207 366.943 853.976 366.106 852.962 365.039C850.993 362.917 849.598 359.737 848.776 355.498L847.856 350.392C847.053 345.964 847.243 342.677 848.427 340.53C849.613 338.377 851.877 337.301 855.234 337.301C856.7 337.229 858.165 337.469 859.531 338.007C860.897 338.545 862.132 339.367 863.155 340.42C865.1 342.493 866.486 345.691 867.314 350.015L868.206 354.983ZM863.321 349.748C862.742 346.51 861.84 344.155 860.644 342.674C860.066 341.95 859.326 341.371 858.484 340.985C857.642 340.598 856.721 340.414 855.796 340.447C853.781 340.447 852.456 341.183 851.803 342.655C851.15 344.127 851.085 346.4 851.61 349.463L852.714 355.581C853.312 358.829 854.223 361.23 855.474 362.785C856.038 363.526 856.77 364.124 857.609 364.528C858.449 364.933 859.372 365.133 860.304 365.113C862.236 365.113 863.551 364.377 864.223 362.923C864.894 361.469 864.977 359.16 864.453 356.014L863.321 349.748ZM877.222 370.403H873.846L880.838 337.715H884.195L877.222 370.403ZM908.225 345.562C908.52 346.917 908.345 348.332 907.729 349.574C907.112 350.77 906.129 351.737 904.923 352.334C906.589 352.966 908.085 353.977 909.293 355.287C910.434 356.516 911.203 358.044 911.51 359.694C911.979 362.297 911.454 364.377 909.927 365.913C908.4 367.449 906.165 368.231 903.221 368.231C900.509 368.317 897.845 367.498 895.649 365.904C893.608 364.417 892.237 362.186 891.831 359.694C891.52 358.202 891.721 356.65 892.402 355.287C893.112 353.951 894.263 352.901 895.658 352.315C894.219 351.688 892.939 350.745 891.914 349.555C890.922 348.425 890.261 347.044 890.001 345.562C889.541 343.035 890.01 341.024 891.408 339.527C892.816 338.037 894.876 337.292 897.609 337.292C900.128 337.225 902.595 338.013 904.61 339.527C906.548 340.998 907.843 343.16 908.225 345.562ZM898.179 340.438C897.529 340.392 896.876 340.493 896.271 340.736C895.665 340.978 895.122 341.354 894.683 341.836C894.28 342.37 894.003 342.989 893.874 343.646C893.745 344.302 893.767 344.98 893.938 345.627C894.174 347.063 894.915 348.368 896.026 349.307C897.151 350.257 898.585 350.761 900.056 350.724C900.711 350.773 901.369 350.671 901.978 350.426C902.588 350.18 903.133 349.797 903.57 349.307C903.957 348.786 904.224 348.186 904.351 347.549C904.479 346.913 904.463 346.256 904.306 345.627C904.065 344.161 903.304 342.832 902.163 341.882C901.053 340.936 899.637 340.425 898.179 340.447V340.438ZM907.563 359.602C907.297 357.984 906.445 356.521 905.171 355.489C903.877 354.427 902.245 353.863 900.571 353.898C899.833 353.841 899.091 353.953 898.402 354.226C897.714 354.498 897.096 354.924 896.597 355.471C896.146 356.047 895.834 356.72 895.686 357.436C895.538 358.153 895.556 358.894 895.741 359.602C895.978 361.183 896.795 362.619 898.032 363.631C899.345 364.646 900.973 365.167 902.632 365.103C903.376 365.166 904.126 365.066 904.828 364.81C905.53 364.555 906.168 364.149 906.698 363.622C907.143 363.066 907.453 362.414 907.603 361.718C907.753 361.022 907.739 360.301 907.563 359.611V359.602ZM935.006 354.983C935.816 359.467 935.632 362.794 934.454 364.965C933.276 367.137 931.016 368.225 927.674 368.231C926.203 368.297 924.736 368.046 923.371 367.495C922.006 366.944 920.775 366.107 919.762 365.039C917.793 362.917 916.395 359.737 915.567 355.498L914.647 350.392C913.843 345.964 914.033 342.677 915.217 340.53C916.401 338.383 918.67 337.307 922.025 337.301C923.49 337.228 924.953 337.468 926.318 338.006C927.682 338.544 928.916 339.367 929.937 340.42C931.887 342.493 933.276 345.691 934.104 350.015L935.006 354.983ZM930.121 349.748C929.508 346.51 928.612 344.152 927.435 342.674C926.858 341.95 926.12 341.372 925.28 340.985C924.439 340.598 923.52 340.414 922.595 340.447C920.584 340.447 919.25 341.183 918.593 342.655C917.94 344.136 917.876 346.4 918.409 349.463L919.513 355.581C920.127 358.832 921.047 361.233 922.273 362.785C922.838 363.526 923.57 364.123 924.41 364.527C925.249 364.932 926.172 365.132 927.103 365.113C929.044 365.113 930.351 364.377 931.032 362.923C931.712 361.469 931.786 359.16 931.262 356.014L930.121 349.748Z" fill="#F18162"/>
<path d="M781.031 353.632C780.674 351.99 779.776 350.516 778.482 349.446C777.188 348.375 775.572 347.769 773.892 347.725C773.144 347.687 772.397 347.821 771.709 348.118C771.022 348.416 770.412 348.868 769.928 349.439C769.443 350.011 769.097 350.687 768.917 351.414C768.737 352.141 768.727 352.9 768.888 353.632C769.246 355.275 770.145 356.75 771.441 357.821C772.737 358.892 774.355 359.496 776.036 359.538C776.784 359.577 777.531 359.443 778.218 359.146C778.906 358.848 779.515 358.396 779.999 357.824C780.482 357.252 780.827 356.576 781.006 355.849C781.186 355.122 781.194 354.363 781.031 353.632ZM961.531 353.632C961.174 351.99 960.276 350.516 958.982 349.446C957.688 348.375 956.072 347.769 954.392 347.725C953.644 347.687 952.897 347.821 952.209 348.118C951.522 348.416 950.912 348.868 950.428 349.439C949.943 350.011 949.598 350.687 949.417 351.414C949.237 352.141 949.227 352.9 949.388 353.632C949.746 355.275 950.645 356.75 951.941 357.821C953.237 358.892 954.855 359.496 956.536 359.538C957.284 359.577 958.031 359.443 958.718 359.146C959.406 358.848 960.015 358.396 960.499 357.824C960.983 357.252 961.327 356.576 961.507 355.849C961.686 355.122 961.694 354.363 961.531 353.632Z" fill="#F9C956"/>
<path d="M778.519 360.163C776.692 360.113 774.934 359.451 773.528 358.283C772.122 357.116 771.148 355.51 770.763 353.723C770.59 352.909 770.603 352.068 770.8 351.26C770.998 350.452 771.375 349.7 771.904 349.058C772.456 348.417 773.143 347.907 773.917 347.565C774.69 347.223 775.53 347.057 776.375 347.08C778.203 347.128 779.961 347.79 781.368 348.958C782.775 350.126 783.748 351.733 784.131 353.52C784.301 354.333 784.288 355.173 784.093 355.98C783.897 356.787 783.523 357.541 782.999 358.185C782.447 358.827 781.758 359.338 780.983 359.68C780.207 360.022 779.366 360.187 778.519 360.163ZM776.375 348.322C775.713 348.3 775.054 348.425 774.446 348.689C773.838 348.954 773.297 349.35 772.861 349.849C772.451 350.359 772.16 350.954 772.01 351.591C771.86 352.228 771.856 352.89 771.996 353.529C772.322 355.029 773.142 356.376 774.325 357.354C775.508 358.332 776.985 358.883 778.519 358.921C779.181 358.943 779.84 358.818 780.448 358.554C781.056 358.289 781.598 357.893 782.033 357.393C782.446 356.885 782.738 356.29 782.888 355.653C783.038 355.015 783.041 354.352 782.898 353.713C782.573 352.214 781.753 350.867 780.57 349.889C779.387 348.911 777.91 348.36 776.375 348.322ZM958.991 360.163C957.164 360.113 955.407 359.451 954 358.283C952.594 357.116 951.621 355.51 951.236 353.723C951.063 352.909 951.075 352.068 951.273 351.26C951.47 350.452 951.848 349.7 952.377 349.058C952.928 348.417 953.616 347.907 954.389 347.565C955.163 347.223 956.002 347.057 956.848 347.08C958.675 347.128 960.434 347.79 961.84 348.958C963.247 350.126 964.22 351.733 964.603 353.52C964.774 354.333 964.761 355.173 964.565 355.98C964.369 356.787 963.996 357.541 963.472 358.185C962.919 358.827 962.23 359.338 961.455 359.68C960.68 360.022 959.838 360.187 958.991 360.163ZM956.848 348.322C956.185 348.3 955.526 348.425 954.918 348.689C954.31 348.954 953.769 349.35 953.334 349.849C952.923 350.359 952.632 350.954 952.483 351.591C952.333 352.228 952.328 352.89 952.469 353.529C952.794 355.029 953.614 356.376 954.797 357.354C955.98 358.332 957.457 358.883 958.991 358.921C959.654 358.943 960.313 358.818 960.921 358.554C961.529 358.289 962.07 357.893 962.506 357.393C962.918 356.885 963.211 356.29 963.361 355.653C963.51 355.015 963.514 354.352 963.37 353.713C963.045 352.214 962.225 350.867 961.042 349.889C959.859 348.911 958.382 348.36 956.848 348.322Z" fill="black"/>
<path d="M1148.2 498.936H1041.94C1039.74 498.88 1037.62 498.086 1035.92 496.681C1034.22 495.277 1033.04 493.343 1032.57 491.19L1013.84 387.79C1013.63 386.831 1013.64 385.835 1013.88 384.881C1014.11 383.927 1014.57 383.041 1015.2 382.291C1015.84 381.541 1016.64 380.948 1017.54 380.558C1018.44 380.168 1019.42 379.992 1020.4 380.044H1126.66C1128.86 380.101 1130.98 380.895 1132.68 382.299C1134.38 383.704 1135.56 385.637 1136.03 387.79L1154.76 491.19C1154.97 492.149 1154.96 493.145 1154.72 494.099C1154.49 495.053 1154.03 495.94 1153.4 496.69C1152.76 497.44 1151.96 498.033 1151.06 498.422C1150.16 498.812 1149.18 498.988 1148.2 498.936Z" fill="white"/>
<path d="M1148.19 499.564H1041.94C1039.59 499.5 1037.33 498.649 1035.52 497.148C1033.71 495.647 1032.45 493.582 1031.95 491.284L1013.22 387.884C1013.01 386.845 1013.03 385.772 1013.27 384.741C1013.52 383.71 1014 382.747 1014.67 381.922C1015.38 381.103 1016.26 380.451 1017.25 380.015C1018.24 379.579 1019.32 379.369 1020.4 379.402H1126.66C1129.01 379.466 1131.27 380.317 1133.08 381.818C1134.89 383.319 1136.14 385.384 1136.64 387.682L1155.37 491.072C1155.59 492.111 1155.57 493.185 1155.32 494.216C1155.07 495.247 1154.59 496.21 1153.93 497.034C1153.22 497.855 1152.34 498.508 1151.35 498.945C1150.35 499.383 1149.28 499.594 1148.19 499.564ZM1020.4 380.671C1019.5 380.641 1018.61 380.811 1017.78 381.169C1016.96 381.527 1016.22 382.064 1015.63 382.741C1015.08 383.425 1014.69 384.223 1014.49 385.078C1014.28 385.933 1014.27 386.823 1014.46 387.682L1033.19 491.072C1033.63 493.079 1034.73 494.879 1036.32 496.187C1037.9 497.494 1039.88 498.233 1041.94 498.285H1148.19C1149.09 498.316 1149.99 498.146 1150.81 497.786C1151.64 497.426 1152.37 496.886 1152.96 496.206C1153.51 495.524 1153.9 494.727 1154.11 493.874C1154.31 493.02 1154.32 492.132 1154.14 491.275L1135.41 387.884C1134.97 385.874 1133.87 384.069 1132.28 382.758C1130.69 381.448 1128.71 380.706 1126.66 380.653L1020.4 380.671Z" fill="black"/>
<path d="M1054.73 424.784C1046.45 424.784 1038.55 418.233 1037.09 410.183C1036.71 408.369 1036.74 406.492 1037.18 404.691C1037.61 402.889 1038.45 401.208 1039.62 399.769C1040.86 398.332 1042.4 397.19 1044.14 396.427C1045.88 395.665 1047.77 395.301 1049.66 395.362C1057.94 395.362 1065.85 401.913 1067.31 409.963C1067.69 411.777 1067.66 413.653 1067.22 415.455C1066.79 417.256 1065.96 418.938 1064.79 420.377C1063.55 421.815 1062 422.957 1060.26 423.719C1058.52 424.482 1056.63 424.845 1054.73 424.784ZM1049.66 396.613C1047.96 396.56 1046.26 396.887 1044.69 397.571C1043.13 398.256 1041.73 399.28 1040.61 400.569C1039.55 401.866 1038.8 403.382 1038.4 405.007C1038.01 406.632 1037.98 408.325 1038.32 409.963C1039.68 417.442 1047.04 423.533 1054.73 423.533C1056.44 423.587 1058.14 423.26 1059.7 422.575C1061.27 421.891 1062.66 420.867 1063.78 419.577C1064.84 418.277 1065.58 416.76 1065.97 415.135C1066.36 413.51 1066.39 411.818 1066.04 410.183C1064.69 402.704 1057.33 396.613 1049.66 396.613Z" fill="#8FB9D1"/>
<path d="M1059.18 410.073C1058.77 408.181 1057.73 406.481 1056.24 405.247C1054.75 404.012 1052.89 403.314 1050.95 403.265C1050.09 403.221 1049.23 403.376 1048.44 403.719C1047.65 404.062 1046.94 404.583 1046.39 405.242C1045.83 405.901 1045.43 406.68 1045.22 407.518C1045.02 408.356 1045.01 409.231 1045.19 410.073C1045.61 411.964 1046.64 413.662 1048.13 414.895C1049.62 416.127 1051.48 416.824 1053.42 416.872C1054.28 416.918 1055.14 416.764 1055.93 416.423C1056.73 416.081 1057.43 415.56 1057.99 414.902C1058.54 414.244 1058.94 413.465 1059.15 412.627C1059.35 411.79 1059.36 410.916 1059.18 410.073Z" fill="#C2D9E5"/>
<path d="M1053.42 417.497C1051.34 417.445 1049.33 416.696 1047.73 415.369C1046.13 414.043 1045.02 412.216 1044.58 410.183C1044.38 409.259 1044.39 408.304 1044.62 407.387C1044.84 406.469 1045.27 405.614 1045.86 404.883C1046.49 404.146 1047.27 403.558 1048.15 403.163C1049.03 402.769 1049.99 402.577 1050.95 402.602C1053.04 402.661 1055.04 403.418 1056.64 404.753C1058.25 406.088 1059.36 407.922 1059.79 409.962C1059.98 410.884 1059.97 411.837 1059.74 412.752C1059.52 413.667 1059.1 414.521 1058.5 415.252C1057.88 415.982 1057.1 416.563 1056.22 416.952C1055.33 417.34 1054.38 417.526 1053.42 417.497ZM1050.95 403.89C1050.17 403.871 1049.39 404.026 1048.68 404.344C1047.96 404.663 1047.33 405.136 1046.82 405.73C1046.34 406.323 1046.01 407.015 1045.83 407.755C1045.66 408.495 1045.65 409.264 1045.81 410.008C1046.19 411.756 1047.15 413.326 1048.53 414.465C1049.91 415.605 1051.63 416.248 1053.42 416.292C1054.19 416.318 1054.97 416.171 1055.68 415.86C1056.39 415.55 1057.03 415.084 1057.54 414.497C1058.02 413.908 1058.36 413.218 1058.53 412.479C1058.71 411.74 1058.72 410.971 1058.56 410.229C1058.19 408.471 1057.24 406.889 1055.85 405.739C1054.47 404.589 1052.75 403.938 1050.95 403.89Z" fill="white"/>
<path d="M1133.38 493.49C1125.1 493.49 1117.2 486.939 1115.74 478.889C1115.36 477.075 1115.39 475.199 1115.82 473.397C1116.26 471.596 1117.09 469.914 1118.26 468.475C1119.5 467.042 1121.04 465.903 1122.77 465.141C1124.5 464.379 1126.39 464.012 1128.28 464.068C1136.56 464.068 1144.46 470.619 1145.92 478.669C1146.31 480.48 1146.29 482.355 1145.86 484.156C1145.43 485.958 1144.6 487.641 1143.44 489.083C1142.2 490.521 1140.65 491.663 1138.91 492.425C1137.17 493.188 1135.28 493.551 1133.38 493.49ZM1128.28 465.319C1126.57 465.265 1124.87 465.592 1123.31 466.277C1121.74 466.961 1120.35 467.985 1119.23 469.275C1118.18 470.575 1117.43 472.092 1117.04 473.717C1116.65 475.342 1116.63 477.034 1116.97 478.669C1118.32 486.148 1125.69 492.239 1133.38 492.239C1135.09 492.293 1136.79 491.966 1138.36 491.281C1139.92 490.597 1141.32 489.573 1142.44 488.283C1143.49 486.983 1144.24 485.466 1144.63 483.841C1145.02 482.216 1145.04 480.524 1144.69 478.889C1143.38 471.41 1136.01 465.319 1128.32 465.319H1128.28Z" fill="#8FB9D1"/>
<path d="M1137.86 478.782C1137.45 476.891 1136.42 475.192 1134.93 473.957C1133.44 472.723 1131.57 472.025 1129.64 471.974C1128.78 471.93 1127.92 472.085 1127.12 472.428C1126.33 472.771 1125.63 473.292 1125.07 473.951C1124.51 474.61 1124.11 475.388 1123.91 476.226C1123.7 477.064 1123.69 477.939 1123.87 478.782C1124.28 480.683 1125.33 482.389 1126.83 483.624C1128.33 484.859 1130.21 485.552 1132.15 485.59C1133.01 485.627 1133.86 485.467 1134.65 485.121C1135.44 484.775 1136.13 484.252 1136.68 483.594C1137.24 482.936 1137.63 482.16 1137.84 481.326C1138.04 480.491 1138.05 479.621 1137.86 478.782Z" fill="#C2D9E5"/>
<path d="M1132.1 486.216C1130.02 486.159 1128.01 485.402 1126.41 484.067C1124.8 482.732 1123.69 480.897 1123.25 478.855C1123.06 477.931 1123.08 476.976 1123.3 476.059C1123.53 475.143 1123.95 474.288 1124.55 473.556C1125.18 472.827 1125.96 472.247 1126.84 471.858C1127.72 471.47 1128.67 471.283 1129.63 471.311C1131.72 471.368 1133.72 472.125 1135.33 473.46C1136.93 474.795 1138.04 476.63 1138.48 478.671C1138.67 479.596 1138.66 480.551 1138.43 481.468C1138.21 482.385 1137.78 483.24 1137.18 483.971C1136.56 484.7 1135.78 485.28 1134.9 485.669C1134.02 486.057 1133.06 486.244 1132.1 486.216ZM1129.63 472.599C1128.85 472.579 1128.07 472.734 1127.36 473.052C1126.65 473.371 1126.01 473.845 1125.51 474.439C1125.03 475.031 1124.7 475.721 1124.52 476.459C1124.34 477.197 1124.33 477.965 1124.49 478.708C1124.87 480.458 1125.83 482.028 1127.21 483.169C1128.59 484.309 1130.31 484.954 1132.1 485.001C1132.88 485.026 1133.65 484.877 1134.37 484.567C1135.08 484.257 1135.71 483.792 1136.23 483.207C1136.7 482.614 1137.04 481.923 1137.22 481.183C1137.39 480.443 1137.4 479.673 1137.25 478.929C1136.87 477.173 1135.91 475.594 1134.53 474.446C1133.15 473.299 1131.43 472.648 1129.63 472.599Z" fill="white"/>
<path d="M1047.83 499.564C1047.7 499.564 1047.58 499.526 1047.47 499.455C1047.37 499.385 1047.29 499.285 1047.25 499.169C1043.63 490.152 1043.23 482.838 1046 476.803C1050.72 466.582 1064.01 462.083 1075.72 458.164C1085.72 454.797 1095.16 451.613 1097.7 445.532C1100.46 438.973 1099.03 430.37 1097.53 421.262C1095.13 406.68 1092.41 390.139 1107.65 379.531C1107.72 379.477 1107.79 379.437 1107.88 379.414C1107.96 379.391 1108.05 379.385 1108.13 379.397C1108.22 379.408 1108.3 379.438 1108.37 379.482C1108.45 379.527 1108.51 379.586 1108.56 379.657C1108.61 379.727 1108.64 379.806 1108.66 379.891C1108.68 379.975 1108.68 380.061 1108.66 380.145C1108.64 380.229 1108.61 380.309 1108.56 380.379C1108.51 380.449 1108.44 380.508 1108.37 380.552C1093.79 390.672 1096.33 406.137 1098.78 421.032C1100.32 430.324 1101.76 439.101 1098.87 445.992C1096.11 452.589 1086.41 455.855 1076.14 459.323C1064.66 463.187 1051.65 467.603 1047.16 477.3C1044.53 483.004 1044.95 489.996 1048.42 498.672C1048.48 498.827 1048.48 499 1048.42 499.153C1048.35 499.306 1048.23 499.427 1048.07 499.491C1048 499.531 1047.91 499.556 1047.83 499.564Z" fill="black"/>
<path d="M1083.25 421.308C1080.28 400.552 1110.8 400.58 1120.46 429.634C1130.4 459.479 1103.26 478.974 1073.55 478.974C1050.36 478.974 1045.95 452.293 1060.67 446.286C1075 440.48 1085.15 434.519 1083.25 421.308Z" fill="#EE97A4"/>
<path d="M1073.59 479.599C1059.92 479.599 1053.35 470.831 1051.9 463.324C1050.37 455.485 1053.81 448.401 1060.45 445.706C1075.81 439.468 1084.37 433.497 1082.63 421.399C1081.53 413.717 1084.93 407.976 1091.51 406.431C1101.48 404.066 1115.26 412.033 1121.06 429.431C1124.87 440.903 1123.51 451.658 1117.11 460.527C1108.64 472.294 1091.99 479.599 1073.59 479.599ZM1083.87 421.224C1085.91 435.475 1074.17 441.464 1060.87 446.865C1053.86 449.708 1051.91 457.059 1053.08 463.085C1054.46 470.123 1060.64 478.348 1073.54 478.348C1091.51 478.348 1107.8 471.236 1116.05 459.791C1122.21 451.263 1123.5 440.903 1119.82 429.826C1114.26 413.11 1101.18 405.419 1091.75 407.645C1085.77 409.062 1082.8 414.085 1083.83 421.224H1083.87Z" fill="#F17171"/>
<path d="M1115.77 443.444H1115.69C1115.61 443.434 1115.53 443.407 1115.46 443.366C1115.38 443.325 1115.32 443.269 1115.27 443.203C1115.22 443.138 1115.18 443.062 1115.16 442.982C1115.14 442.901 1115.14 442.818 1115.15 442.735C1115.59 439.109 1115.3 435.432 1114.31 431.916C1114.29 431.836 1114.28 431.753 1114.3 431.672C1114.31 431.59 1114.33 431.511 1114.37 431.44C1114.42 431.368 1114.47 431.306 1114.54 431.256C1114.6 431.206 1114.68 431.169 1114.76 431.148C1114.84 431.127 1114.92 431.122 1115 431.133C1115.08 431.144 1115.16 431.171 1115.23 431.212C1115.3 431.253 1115.37 431.308 1115.42 431.374C1115.47 431.44 1115.5 431.514 1115.52 431.594C1116.55 435.27 1116.85 439.112 1116.39 442.901C1116.37 443.051 1116.3 443.188 1116.18 443.288C1116.07 443.387 1115.92 443.443 1115.77 443.444ZM1088.04 470.869C1087.89 470.869 1087.74 470.816 1087.63 470.718C1087.51 470.62 1087.44 470.485 1087.42 470.337C1087.39 470.188 1087.43 470.037 1087.51 469.91C1087.59 469.784 1087.71 469.69 1087.85 469.646C1088.05 469.581 1108.37 463.206 1113.93 447.731C1113.99 447.576 1114.11 447.45 1114.26 447.38C1114.41 447.31 1114.58 447.3 1114.73 447.354C1114.81 447.381 1114.88 447.423 1114.95 447.478C1115.01 447.533 1115.06 447.6 1115.09 447.674C1115.13 447.749 1115.15 447.83 1115.15 447.912C1115.15 447.995 1115.14 448.077 1115.11 448.154C1112.08 456.572 1104.92 462.295 1099.47 465.634C1095.94 467.795 1092.17 469.548 1088.24 470.86L1088.04 470.869ZM1000.35 515.039H798.509C796.306 514.984 794.185 514.19 792.486 512.785C790.788 511.381 789.611 509.446 789.144 507.292L775.509 431.769C775.297 430.81 775.309 429.814 775.545 428.86C775.78 427.906 776.233 427.019 776.868 426.269C777.503 425.519 778.303 424.926 779.205 424.537C780.108 424.147 781.088 423.971 782.069 424.022H983.867C986.069 424.079 988.189 424.873 989.887 426.278C991.585 427.682 992.763 429.616 993.232 431.769L1006.91 507.292C1007.12 508.252 1007.11 509.247 1006.88 510.201C1006.64 511.155 1006.19 512.042 1005.55 512.792C1004.92 513.542 1004.12 514.135 1003.22 514.525C1002.31 514.915 1001.33 515.09 1000.35 515.039Z" fill="white"/>
<path d="M1000.35 515.664H798.511C796.161 515.6 793.9 514.749 792.09 513.248C790.281 511.747 789.027 509.682 788.529 507.384L774.84 431.861C774.624 430.821 774.642 429.747 774.894 428.716C775.145 427.684 775.623 426.722 776.294 425.899C777 425.08 777.88 424.429 778.87 423.993C779.86 423.556 780.935 423.347 782.016 423.378H983.869C986.219 423.442 988.48 424.293 990.29 425.794C992.099 427.295 993.353 429.36 993.85 431.658L1007.53 507.182C1007.75 508.22 1007.73 509.294 1007.48 510.325C1007.23 511.356 1006.75 512.318 1006.09 513.143C1005.38 513.963 1004.5 514.615 1003.51 515.051C1002.51 515.487 1001.44 515.696 1000.35 515.664ZM782.034 424.685C781.136 424.656 780.243 424.827 779.419 425.185C778.595 425.543 777.861 426.079 777.269 426.755C776.72 427.44 776.33 428.239 776.127 429.093C775.923 429.947 775.911 430.836 776.091 431.695L789.78 507.218C790.22 509.228 791.321 511.033 792.907 512.344C794.493 513.655 796.473 514.396 798.529 514.45H1000.35C1001.25 514.48 1002.15 514.31 1002.97 513.952C1003.8 513.594 1004.53 513.057 1005.12 512.38C1005.67 511.696 1006.07 510.898 1006.27 510.043C1006.47 509.188 1006.48 508.298 1006.3 507.439L992.627 431.879C992.187 429.869 991.086 428.064 989.5 426.753C987.914 425.442 985.935 424.701 983.878 424.648L782.034 424.685Z" fill="black"/>
<path d="M856.695 490.693C866.467 478.23 862.286 458.636 847.356 446.929C832.427 435.222 812.402 435.835 802.63 448.299C792.857 460.762 797.039 480.355 811.968 492.062C826.898 503.769 846.923 503.156 856.695 490.693Z" fill="white"/>
<path d="M835.311 501.12C817.473 501.12 800.407 486.998 797.261 469.647C795.743 461.247 797.656 453.335 802.652 447.355C807.647 441.375 815.329 437.943 824.087 437.943C841.926 437.943 858.992 452.065 862.138 469.417C863.656 477.807 861.742 485.729 856.756 491.699C851.77 497.67 844.033 501.12 835.311 501.12ZM824.087 439.195C815.716 439.195 808.448 442.378 803.609 448.165C798.77 453.951 797.04 461.404 798.494 469.417C801.539 486.207 818.052 499.869 835.293 499.869C843.674 499.869 850.932 496.686 855.772 490.899C860.611 485.112 862.34 477.66 860.887 469.647C857.823 452.857 841.31 439.195 824.051 439.195H824.087Z" fill="black"/>
<path d="M832.128 486.684L825.44 482.304C811.41 473.104 810.361 467.308 809.966 465.128C808.972 459.608 812.725 455.201 818.365 455.201C820.213 455.24 822.03 455.686 823.687 456.506C825.344 457.327 826.8 458.502 827.951 459.948C828.646 458.472 829.761 457.233 831.158 456.389C832.554 455.544 834.168 455.131 835.799 455.201C838.615 455.281 841.323 456.302 843.491 458.101C845.659 459.901 847.161 462.375 847.758 465.128C849.276 473.528 840.702 480.106 837.473 482.608L832.128 486.684Z" fill="#F79291"/>
<path d="M894.05 488.071H883.323L876.267 449.137H887.003L894.05 488.071ZM915.439 482.009H904.703L899.846 455.2H910.573L915.439 482.009ZM939.009 488.071H928.282L922.781 457.684H933.508L939.009 488.071ZM959.81 478.779H949.083L943.71 449.137H954.437L959.81 478.779ZM983.969 488.071H973.242L968.844 463.82H979.58L983.969 488.071Z" fill="#FFD5BE"/>
<path d="M980.3 470.868H876.269C876.103 470.868 875.944 470.802 875.827 470.685C875.709 470.568 875.644 470.409 875.644 470.243C875.644 470.077 875.709 469.918 875.827 469.8C875.944 469.683 876.103 469.617 876.269 469.617H980.3C980.466 469.617 980.626 469.683 980.743 469.8C980.86 469.918 980.926 470.077 980.926 470.243C980.926 470.409 980.86 470.568 980.743 470.685C980.626 470.802 980.466 470.868 980.3 470.868Z" fill="#F94151"/>
<path d="M701.666 566.879C701.521 566.88 701.379 566.83 701.267 566.737C701.154 566.645 701.078 566.516 701.05 566.373L626.09 152.701C626.075 152.62 626.077 152.537 626.095 152.457C626.112 152.377 626.145 152.301 626.192 152.233C626.239 152.166 626.299 152.108 626.368 152.064C626.438 152.019 626.515 151.989 626.596 151.975C626.677 151.96 626.76 151.962 626.84 151.979C626.92 151.997 626.997 152.03 627.064 152.077C627.132 152.124 627.189 152.184 627.233 152.253C627.278 152.322 627.308 152.4 627.323 152.481L702.283 566.143C702.297 566.224 702.296 566.307 702.278 566.388C702.261 566.468 702.227 566.544 702.18 566.612C702.133 566.679 702.074 566.737 702.004 566.781C701.935 566.825 701.858 566.856 701.777 566.87L701.666 566.879ZM1203.39 580.624H764.142C763.996 580.623 763.854 580.57 763.742 580.477C763.63 580.383 763.553 580.253 763.526 580.109L682.595 133.455C682.58 133.364 682.584 133.271 682.608 133.182C682.632 133.093 682.675 133.011 682.733 132.94C682.791 132.869 682.864 132.813 682.947 132.775C683.03 132.736 683.12 132.717 683.211 132.719H1122.45C1122.59 132.718 1122.73 132.769 1122.85 132.861C1122.96 132.953 1123.04 133.082 1123.06 133.225L1204.02 579.879C1204.04 579.97 1204.03 580.063 1204.01 580.152C1203.98 580.24 1203.94 580.323 1203.88 580.394C1203.82 580.468 1203.75 580.528 1203.66 580.567C1203.58 580.607 1203.48 580.627 1203.39 580.624ZM764.657 579.373H1202.63L1121.92 133.961H683.957L764.657 579.373Z" fill="black"/>
<path d="M1220.56 597.877H753.211C735.363 597.877 718.252 583.745 715.124 566.376L640.173 152.704C638.646 144.304 640.559 136.383 645.555 130.403C650.55 124.423 658.26 120.973 667.018 120.973H1134.37C1152.22 120.973 1169.33 135.104 1172.45 152.483L1247.46 566.146C1248.98 574.545 1247.07 582.467 1242.07 588.456C1237.07 594.445 1229.33 597.877 1220.56 597.877ZM667.018 122.233C658.637 122.233 651.378 125.416 646.521 131.212C641.663 137.008 639.943 144.46 641.406 152.492L716.357 566.146C719.392 582.927 735.952 596.625 753.211 596.625H1220.56C1228.95 596.625 1236.2 593.442 1241.07 587.646C1245.93 581.85 1247.64 574.398 1246.18 566.376L1171.22 152.704C1168.18 135.895 1151.65 122.224 1134.42 122.224L667.018 122.233Z" fill="black"/>
<path d="M1171.86 580.506C1171.72 580.506 1171.58 580.456 1171.47 580.363C1171.35 580.271 1171.28 580.142 1171.25 580L1161.95 532.159C1161.51 530.146 1160.41 528.338 1158.82 527.025C1157.23 525.712 1155.25 524.971 1153.19 524.919H1046.9C1046 524.89 1045.11 525.061 1044.29 525.421C1043.46 525.78 1042.73 526.319 1042.14 526.998C1041.59 527.681 1041.2 528.478 1040.99 529.331C1040.79 530.184 1040.78 531.071 1040.96 531.929L1050.27 579.77C1050.3 579.933 1050.27 580.102 1050.17 580.24C1050.08 580.378 1049.94 580.474 1049.77 580.506C1049.61 580.537 1049.44 580.503 1049.3 580.41C1049.17 580.316 1049.07 580.172 1049.04 580.009L1039.74 532.168C1039.52 531.128 1039.53 530.052 1039.78 529.019C1040.03 527.986 1040.51 527.022 1041.18 526.198C1041.89 525.383 1042.77 524.735 1043.76 524.299C1044.75 523.864 1045.82 523.651 1046.9 523.677H1153.16C1155.51 523.738 1157.78 524.587 1159.59 526.089C1161.4 527.591 1162.65 529.657 1163.14 531.957L1172.45 579.797C1172.48 579.959 1172.45 580.127 1172.35 580.263C1172.26 580.399 1172.12 580.493 1171.96 580.524L1171.86 580.506ZM802.088 581.876C801.942 581.876 801.801 581.824 801.69 581.73C801.579 581.636 801.505 581.505 801.481 581.361L796.522 554C796.306 552.961 796.324 551.888 796.574 550.857C796.824 549.826 797.299 548.863 797.966 548.039C798.674 547.219 799.556 546.567 800.547 546.131C801.539 545.695 802.615 545.485 803.698 545.518H1005.5C1007.85 545.582 1010.12 546.433 1011.93 547.934C1013.74 549.435 1014.99 551.5 1015.49 553.798L1020.09 579.227C1020.12 579.39 1020.08 579.559 1019.98 579.695C1019.89 579.831 1019.74 579.924 1019.58 579.954C1019.42 579.983 1019.25 579.946 1019.11 579.851C1018.98 579.756 1018.88 579.611 1018.85 579.448L1014.25 554.019C1013.82 552.005 1012.72 550.196 1011.13 548.882C1009.55 547.567 1007.56 546.823 1005.5 546.769H803.698C802.8 546.739 801.906 546.909 801.082 547.267C800.257 547.625 799.523 548.162 798.932 548.839C798.38 549.522 797.987 550.321 797.783 551.176C797.58 552.031 797.57 552.92 797.755 553.779L802.713 581.131C802.741 581.295 802.703 581.464 802.609 581.601C802.514 581.738 802.37 581.834 802.207 581.867L802.088 581.876ZM1254.31 157.017C1253.15 156.99 1252.03 156.621 1251.07 155.956C1250.12 155.292 1249.39 154.361 1248.96 153.281C1248.54 152.2 1248.44 151.019 1248.69 149.884C1248.93 148.749 1249.5 147.711 1250.33 146.9C1251.16 146.09 1252.22 145.542 1253.36 145.327C1254.5 145.111 1255.68 145.237 1256.74 145.689C1257.81 146.14 1258.73 146.897 1259.37 147.865C1260.01 148.833 1260.35 149.968 1260.35 151.129C1260.32 152.709 1259.68 154.215 1258.54 155.318C1257.41 156.421 1255.89 157.032 1254.31 157.017ZM1254.31 146.483C1253.41 146.519 1252.54 146.819 1251.81 147.346C1251.08 147.873 1250.52 148.603 1250.2 149.447C1249.88 150.29 1249.81 151.208 1250.01 152.088C1250.21 152.968 1250.66 153.77 1251.31 154.395C1251.96 155.02 1252.78 155.441 1253.67 155.604C1254.55 155.767 1255.47 155.666 1256.3 155.313C1257.13 154.96 1257.83 154.371 1258.33 153.619C1258.83 152.867 1259.1 151.985 1259.1 151.083C1259.06 149.842 1258.54 148.664 1257.65 147.803C1256.75 146.942 1255.55 146.468 1254.31 146.483ZM923.709 95.3215H867.112C866.946 95.3215 866.787 95.2556 866.67 95.1383C866.552 95.021 866.486 94.8618 866.486 94.6959C866.486 94.53 866.552 94.3709 866.67 94.2535C866.787 94.1362 866.946 94.0703 867.112 94.0703H923.709C923.875 94.0703 924.034 94.1362 924.151 94.2535C924.269 94.3709 924.335 94.53 924.335 94.6959C924.335 94.8618 924.269 95.021 924.151 95.1383C924.034 95.2556 923.875 95.3215 923.709 95.3215ZM629.352 396.661C629.27 396.662 629.188 396.647 629.111 396.616C629.035 396.585 628.966 396.538 628.907 396.48C628.849 396.422 628.803 396.352 628.772 396.276C628.741 396.199 628.725 396.117 628.727 396.035V388.086C628.727 387.92 628.793 387.761 628.91 387.644C629.027 387.526 629.186 387.461 629.352 387.461C629.518 387.461 629.677 387.526 629.795 387.644C629.912 387.761 629.978 387.92 629.978 388.086V396.035C629.978 396.117 629.962 396.198 629.93 396.274C629.899 396.35 629.853 396.419 629.795 396.477C629.737 396.535 629.668 396.582 629.592 396.613C629.516 396.644 629.434 396.661 629.352 396.661ZM629.352 410.461C629.186 410.461 629.027 410.395 628.91 410.277C628.793 410.16 628.727 410.001 628.727 409.835V401.886C628.727 401.72 628.793 401.561 628.91 401.444C629.027 401.327 629.186 401.261 629.352 401.261C629.518 401.261 629.677 401.327 629.795 401.444C629.912 401.561 629.978 401.72 629.978 401.886V409.835C629.976 410 629.909 410.158 629.792 410.275C629.675 410.392 629.517 410.458 629.352 410.461ZM640.521 399.586H632.351C632.186 399.586 632.026 399.52 631.909 399.403C631.792 399.286 631.726 399.127 631.726 398.961C631.726 398.795 631.792 398.636 631.909 398.518C632.026 398.401 632.186 398.335 632.351 398.335H640.521C640.687 398.335 640.846 398.401 640.963 398.518C641.081 398.636 641.146 398.795 641.146 398.961C641.146 399.127 641.081 399.286 640.963 399.403C640.846 399.52 640.687 399.586 640.521 399.586ZM626.344 399.586H618.193C618.027 399.586 617.868 399.52 617.751 399.403C617.633 399.286 617.567 399.127 617.567 398.961C617.567 398.795 617.633 398.636 617.751 398.518C617.868 398.401 618.027 398.335 618.193 398.335H626.362C626.528 398.335 626.687 398.401 626.805 398.518C626.922 398.636 626.988 398.795 626.988 398.961C626.988 399.127 626.922 399.286 626.805 399.403C626.687 399.52 626.528 399.586 626.362 399.586H626.344Z" fill="black"/>
<path d="M629.353 396.661C629.27 396.662 629.188 396.647 629.112 396.616C629.035 396.585 628.966 396.539 628.908 396.481C628.849 396.422 628.803 396.353 628.772 396.276C628.741 396.2 628.726 396.118 628.727 396.035V388.087C628.727 387.921 628.793 387.761 628.91 387.644C629.028 387.527 629.187 387.461 629.353 387.461C629.519 387.461 629.678 387.527 629.795 387.644C629.912 387.761 629.978 387.921 629.978 388.087V396.035C629.978 396.118 629.962 396.199 629.931 396.275C629.899 396.351 629.853 396.42 629.795 396.478C629.737 396.536 629.668 396.582 629.592 396.613C629.516 396.645 629.435 396.661 629.353 396.661ZM629.353 410.461C629.187 410.461 629.028 410.395 628.91 410.278C628.793 410.161 628.727 410.001 628.727 409.835V401.887C628.727 401.721 628.793 401.562 628.91 401.444C629.028 401.327 629.187 401.261 629.353 401.261C629.519 401.261 629.678 401.327 629.795 401.444C629.912 401.562 629.978 401.721 629.978 401.887V409.835C629.976 410.001 629.909 410.158 629.792 410.275C629.676 410.392 629.518 410.459 629.353 410.461Z" fill="black"/>
<g opacity="0.36">
<path d="M1150.29 402.635C1190.25 377.587 1193.61 310.965 1157.8 253.83C1121.99 196.696 1060.56 170.684 1020.6 195.732C980.642 220.78 977.279 287.403 1013.09 344.537C1048.9 401.672 1110.33 427.683 1150.29 402.635Z" fill="#C5D7CA"/>
</g>
<path d="M1157.41 252.642C1123.18 198.048 1065.58 171.883 1025.67 191.516C1027.3 190.234 1029.01 189.037 1030.77 187.928C1070.73 162.877 1132.16 188.848 1167.98 246.018C1203.79 303.187 1200.43 369.777 1160.48 394.82C1158.71 395.929 1156.89 396.945 1155.02 397.865C1190.08 370.403 1191.63 307.189 1157.41 252.642Z" fill="#C898AE"/>
<path d="M1020.22 194.507C1021.99 193.401 1023.81 192.387 1025.68 191.471C990.611 218.85 989.065 282.101 1023.29 336.685C1057.51 391.269 1115.12 417.452 1155.04 397.819C1153.39 399.099 1151.69 400.297 1149.92 401.407C1109.97 426.459 1048.54 400.487 1012.73 343.318C976.912 286.149 980.243 219.522 1020.22 194.507Z" fill="#DED2DF"/>
<path d="M1022.99 336.896C987.107 279.672 990.529 212.695 1030.61 187.552C1070.7 162.408 1132.46 188.536 1168.34 245.76C1204.22 302.985 1200.8 369.961 1160.72 395.114C1150.33 401.516 1138.34 404.831 1126.14 404.673C1090.42 404.673 1049.55 379.345 1022.99 336.896ZM1030.98 188.242C991.274 213.137 987.962 279.654 1023.62 336.51C1059.26 393.366 1120.57 419.366 1160.27 394.47C1199.98 369.575 1203.29 303.068 1167.63 246.211C1141.17 204.001 1100.57 178.793 1065.16 178.793C1053.1 178.637 1041.25 181.914 1030.98 188.242Z" fill="#302719"/>
<path d="M1284.61 484.541C1308.92 409.1 1342.8 370.46 1414.12 465.386C1413.23 467.161 1412.43 468.982 1411.73 470.842C1400.93 499.969 1418.06 532.482 1413.49 563.174C1409.34 591.068 1386.89 614.087 1360.44 623.894C1331.17 634.723 1302.94 631.024 1275.45 622.284C1274.75 621.659 1274.06 621.024 1273.39 620.361C1205.42 554.241 1209.2 456.959 1284.61 484.541Z" fill="#8FB9D1"/>
<path d="M1244.08 483.363C1206.98 499.904 1209.2 565.446 1209.2 565.446L1121.04 455.965L1080.44 509.748C1181.72 683.207 1294.23 681.79 1290.98 604.62L1244.08 483.363Z" fill="#8FB9D1"/>
<path d="M1169.88 365.833C1176.5 365.833 1181.87 352.734 1181.87 336.577C1181.87 320.419 1176.5 307.32 1169.88 307.32C1163.26 307.32 1157.89 320.419 1157.89 336.577C1157.89 352.734 1163.26 365.833 1169.88 365.833Z" fill="#E9F0EB"/>
<path d="M1157.3 336.575C1157.3 319.841 1162.82 306.73 1169.88 306.73C1176.94 306.73 1182.47 319.841 1182.47 336.575C1182.47 353.31 1176.95 366.43 1169.88 366.43C1162.82 366.43 1157.3 353.31 1157.3 336.575ZM1158.48 336.575C1158.48 352.114 1163.71 365.243 1169.88 365.243C1176.05 365.243 1181.29 352.114 1181.29 336.575C1181.29 321.037 1176.06 307.908 1169.88 307.908C1163.7 307.908 1158.47 321.037 1158.47 336.575H1158.48Z" fill="#302719"/>
<path d="M1320.57 429.285C1336.99 308.515 1268.09 214.261 1197.93 261.328C1149.29 293.961 1183.62 317.366 1170.49 357.156C1163.84 377.323 1148.87 399.357 1178.39 403.929C1178.39 403.929 1181.09 436.405 1191.69 445.504C1207.78 459.304 1249.06 461.301 1254.88 473.353C1260.71 485.405 1320.98 475.046 1320.57 429.285Z" fill="#FCAE8B"/>
<path d="M1175.3 339.177C1175.81 342.636 1177.48 345.249 1179.03 345.01C1180.58 344.771 1181.39 341.79 1180.87 338.331C1180.36 334.872 1178.68 332.268 1177.14 332.498C1175.59 332.728 1174.78 335.727 1175.3 339.177ZM1188.37 317.456C1188.42 317.465 1188.47 317.465 1188.52 317.456C1188.61 317.415 1188.69 317.338 1188.73 317.242C1188.77 317.145 1188.77 317.037 1188.73 316.941C1188.53 316.453 1183.78 305.091 1175.17 302.782C1175.07 302.756 1174.96 302.771 1174.87 302.822C1174.78 302.874 1174.72 302.958 1174.69 303.058C1174.67 303.108 1174.67 303.161 1174.67 303.213C1174.68 303.265 1174.7 303.315 1174.72 303.361C1174.75 303.406 1174.78 303.446 1174.82 303.478C1174.87 303.51 1174.91 303.533 1174.96 303.545C1183.2 305.753 1187.95 317.125 1188 317.235C1188.03 317.303 1188.09 317.361 1188.15 317.4C1188.22 317.439 1188.29 317.458 1188.37 317.456Z" fill="#302719"/>
<path d="M1172.41 290.851C1175.22 281.402 1182.28 271.862 1197.93 261.355C1261.41 218.741 1323.96 291.973 1323.04 395.851C1279.75 465.698 1207.53 366.411 1207.53 366.411C1196.16 353.66 1208.1 334.597 1205.31 317.071C1202.38 298.689 1186.89 281.605 1172.41 290.851Z" fill="black"/>
<path d="M1103.14 450.719C1073.22 413.918 1064.9 388.572 1048.68 401.038C1032.46 413.504 1103.14 450.719 1103.14 450.719Z" fill="#FC996D"/>
<path d="M1003.67 440.694C1015.8 417.482 1032.78 390.149 1040.12 378.529C1040.57 377.802 1041.18 377.178 1041.89 376.697C1042.6 376.217 1043.41 375.889 1044.25 375.736C1045.1 375.583 1045.97 375.607 1046.8 375.808C1047.64 376.008 1048.42 376.381 1049.1 376.901C1050.19 377.727 1050.98 378.888 1051.34 380.205C1051.7 381.523 1051.62 382.922 1051.1 384.187C1046.18 396.239 1031.93 430.445 1018.83 455.469L1003.67 440.694Z" fill="#BC7062"/>
<path d="M1096.9 450.721C1096.9 450.721 1059.08 399.385 1026.66 388.575C994.253 377.764 1006.71 397.83 1006.71 397.83C986.342 395.226 987.179 406.11 993.407 417.389C972.827 419.514 991.751 441.024 1007.41 456.756C1016.54 465.956 1022.13 476.15 1028.33 467.566C1028.33 467.566 1042.33 500.549 1077.24 500.549C1112.16 500.549 1103.74 459.415 1096.9 450.721Z" fill="#FCAE8B"/>
<path d="M1018.78 455.467C1008.21 475.642 997.329 491.586 990.208 489.176C982.296 486.499 991.174 464.51 1003.62 440.691L1018.78 455.467Z" fill="#BC7062"/>
<path d="M1028.31 468.154C1028.43 468.155 1028.55 468.116 1028.65 468.044C1028.78 467.955 1028.87 467.819 1028.89 467.665C1028.92 467.512 1028.89 467.353 1028.8 467.225C1028.15 466.305 1012.75 444.538 1000.73 438.217C1000.59 438.161 1000.44 438.158 1000.3 438.209C1000.17 438.259 1000.05 438.359 999.984 438.489C999.916 438.62 999.899 438.771 999.936 438.913C999.974 439.055 1000.06 439.178 1000.19 439.257C1011.95 445.449 1027.68 467.676 1027.79 467.897C1027.84 467.982 1027.92 468.051 1028.01 468.097C1028.11 468.142 1028.21 468.162 1028.31 468.154ZM1014.38 427.619C1014.53 427.621 1014.66 427.568 1014.77 427.472C1014.89 427.37 1014.96 427.226 1014.97 427.071C1014.98 426.916 1014.93 426.762 1014.83 426.644C1004.71 414.877 993.747 416.726 993.287 416.809C993.133 416.837 992.997 416.925 992.908 417.053C992.819 417.182 992.785 417.341 992.813 417.494C992.841 417.648 992.929 417.784 993.058 417.873C993.186 417.962 993.345 417.996 993.499 417.968C993.6 417.968 1004.32 416.183 1013.94 427.407C1013.99 427.473 1014.06 427.526 1014.14 427.563C1014.21 427.6 1014.3 427.619 1014.38 427.619ZM1028.31 411.611C1028.46 411.61 1028.61 411.551 1028.72 411.445C1028.83 411.335 1028.89 411.186 1028.89 411.031C1028.89 410.876 1028.83 410.727 1028.72 410.617C1017.91 399.292 1007.22 397.323 1006.77 397.25C1006.62 397.225 1006.46 397.262 1006.34 397.351C1006.21 397.44 1006.12 397.575 1006.09 397.728C1006.07 397.882 1006.1 398.04 1006.19 398.167C1006.28 398.295 1006.42 398.382 1006.57 398.409C1006.68 398.409 1017.34 400.405 1027.87 411.427C1027.93 411.487 1027.99 411.535 1028.07 411.567C1028.15 411.598 1028.23 411.613 1028.31 411.611Z" fill="#302719"/>
<path d="M1223.05 411.142C1233.46 411.142 1241.89 395.897 1241.89 377.092C1241.89 358.287 1233.46 343.043 1223.05 343.043C1212.65 343.043 1204.22 358.287 1204.22 377.092C1204.22 395.897 1212.65 411.142 1223.05 411.142Z" fill="#FCAE8B"/>
<path d="M1230.12 377.991C1231.31 367.627 1227.85 358.719 1222.39 358.095C1216.93 357.47 1211.55 365.365 1210.36 375.729C1209.18 386.093 1212.64 395.001 1218.1 395.625C1223.55 396.25 1228.94 388.355 1230.12 377.991Z" fill="#FC996D"/>
<path d="M1252.8 473.096C1318.12 471.302 1320.57 429.312 1320.57 429.312C1337.48 462.019 1286.9 491.257 1256.55 488.763L1252.8 473.096Z" fill="white"/>
<path d="M1127.75 492.169C1134.11 469.277 1126.92 447.291 1111.69 443.063C1096.47 438.834 1078.97 453.965 1072.61 476.858C1066.26 499.75 1073.44 521.736 1088.67 525.965C1103.9 530.193 1121.39 515.062 1127.75 492.169Z" fill="#8FB9D1"/>
<path d="M1120.23 227.381C1129.77 206.092 1050.95 180.847 1040.98 201.814C1032.01 220.674 1077.28 209.993 1100.2 219.193C1114.36 224.878 1118.58 231.089 1120.23 227.381ZM1122.84 232.321C1122.84 235.219 1124.49 237.565 1126.52 237.565C1128.54 237.565 1130.2 235.219 1130.2 232.321C1130.2 229.423 1128.53 227.077 1126.52 227.077C1124.5 227.077 1122.84 229.423 1122.84 232.321Z" fill="white"/>
<path d="M1210.46 390.119C1208.24 383.57 1208.26 376.471 1210.51 369.934C1212.43 364.515 1215.87 360.164 1219.47 358.572C1222.78 357.118 1225.71 358.149 1227.54 361.415C1227.59 361.508 1227.6 361.617 1227.57 361.718C1227.54 361.819 1227.48 361.905 1227.39 361.958C1227.29 362.007 1227.19 362.018 1227.09 361.989C1226.99 361.96 1226.9 361.892 1226.85 361.801C1225.22 358.894 1222.72 358.002 1219.8 359.29C1215.51 361.176 1211.23 367.367 1209.97 375.325C1215.92 376.687 1218.51 383.688 1218.42 390.147C1218.42 393.514 1217.5 397.038 1215.59 397.332H1215.34C1213.7 397.35 1212.06 394.922 1210.46 390.119ZM1211.2 389.871C1213.37 396.311 1215.02 396.633 1215.47 396.55C1216.66 396.375 1217.59 393.615 1217.63 390.11C1217.7 385.51 1216.12 377.552 1209.86 376.08C1209.25 380.719 1209.71 385.436 1211.2 389.871ZM1263.1 473.03C1278.58 472.184 1299.71 467.51 1312.48 450.122C1320.14 439.698 1321.12 429.781 1321.16 429.367C1321.17 429.211 1321.12 429.056 1321.02 428.936C1320.92 428.815 1320.78 428.739 1320.63 428.723C1320.47 428.712 1320.32 428.762 1320.2 428.861C1320.08 428.96 1320 429.102 1319.98 429.256C1318.87 436.599 1315.95 443.553 1311.5 449.496C1299 466.489 1278.24 471.043 1263.03 471.88C1262.96 471.884 1262.88 471.902 1262.81 471.935C1262.74 471.968 1262.68 472.015 1262.63 472.072C1262.57 472.129 1262.53 472.196 1262.51 472.269C1262.48 472.342 1262.47 472.419 1262.47 472.497C1262.49 472.649 1262.56 472.789 1262.68 472.888C1262.8 472.987 1262.95 473.038 1263.1 473.03ZM1297.68 485.128C1297.77 485.128 1297.86 485.109 1297.94 485.073C1315.25 476.627 1323.31 465.652 1327.03 457.933C1331.08 449.533 1331 443.213 1330.99 442.946C1330.99 442.791 1330.93 442.644 1330.82 442.535C1330.71 442.427 1330.56 442.366 1330.4 442.366C1330.33 442.367 1330.25 442.384 1330.18 442.415C1330.11 442.447 1330.04 442.492 1329.99 442.548C1329.93 442.605 1329.89 442.672 1329.86 442.745C1329.84 442.818 1329.82 442.895 1329.83 442.974C1329.83 443.222 1329.9 468.182 1297.42 484.015C1297.31 484.075 1297.21 484.173 1297.16 484.293C1297.1 484.413 1297.09 484.548 1297.12 484.677C1297.15 484.805 1297.22 484.92 1297.33 485.001C1297.43 485.083 1297.56 485.128 1297.69 485.128H1297.68ZM1181.09 420.351C1181.56 420.351 1192.43 419.385 1195.55 411.288C1195.59 411.191 1195.59 411.083 1195.54 410.988C1195.5 410.894 1195.42 410.82 1195.32 410.782C1195.28 410.763 1195.23 410.754 1195.17 410.754C1195.12 410.755 1195.07 410.766 1195.02 410.787C1194.98 410.807 1194.94 410.837 1194.9 410.874C1194.86 410.911 1194.84 410.955 1194.82 411.003C1191.87 418.639 1181.15 419.559 1181.02 419.569C1180.93 419.583 1180.84 419.63 1180.78 419.702C1180.72 419.774 1180.68 419.865 1180.68 419.96C1180.68 420.054 1180.72 420.145 1180.78 420.217C1180.84 420.289 1180.93 420.336 1181.02 420.351H1181.09Z" fill="#302719"/>
<path d="M1172.41 291.283C1172.46 291.296 1172.51 291.296 1172.56 291.283C1172.66 291.241 1172.73 291.165 1172.77 291.071C1172.81 290.978 1172.81 290.872 1172.78 290.777C1172.71 290.621 1166.65 275.008 1185.4 262.892C1185.48 262.833 1185.54 262.744 1185.56 262.642C1185.58 262.541 1185.56 262.435 1185.51 262.348C1185.45 262.262 1185.36 262.201 1185.26 262.178C1185.16 262.156 1185.05 262.174 1184.97 262.229C1174.85 268.743 1171.91 276.222 1171.17 281.356C1170.92 283.077 1170.87 284.822 1171.04 286.554C1167.28 275.808 1170.53 271.024 1173.96 266.001C1177.27 261.162 1180.68 256.157 1178.44 245.761C1178.43 245.711 1178.41 245.663 1178.38 245.621C1178.35 245.579 1178.32 245.543 1178.27 245.515C1178.23 245.488 1178.18 245.469 1178.13 245.459C1178.08 245.45 1178.03 245.451 1177.98 245.462C1177.93 245.473 1177.88 245.494 1177.84 245.523C1177.8 245.552 1177.76 245.589 1177.73 245.632C1177.71 245.676 1177.69 245.724 1177.68 245.774C1177.67 245.825 1177.67 245.876 1177.68 245.927C1179.83 255.973 1176.52 260.84 1173.31 265.541C1169.34 271.365 1165.58 276.876 1172.03 291.071C1172.07 291.139 1172.12 291.194 1172.19 291.232C1172.26 291.269 1172.33 291.287 1172.41 291.283Z" fill="black"/>
<path d="M1290.43 627.085C1290.58 627.084 1290.72 627.03 1290.83 626.934C1290.94 626.837 1291.01 626.705 1291.02 626.561C1293.41 605.456 1288.21 579.18 1275.56 548.48C1275.5 548.335 1275.38 548.219 1275.24 548.159C1275.09 548.098 1274.93 548.098 1274.79 548.158C1274.64 548.218 1274.53 548.333 1274.46 548.478C1274.4 548.622 1274.4 548.785 1274.46 548.931C1287.04 579.447 1292.22 605.52 1289.85 626.432C1289.83 626.588 1289.88 626.744 1289.97 626.866C1290.07 626.988 1290.21 627.067 1290.37 627.085H1290.43ZM1209.2 588.141C1209.36 588.141 1209.51 588.079 1209.62 587.969C1209.73 587.858 1209.79 587.709 1209.79 587.553V565.445C1209.77 565.3 1209.7 565.167 1209.59 565.071C1209.48 564.974 1209.34 564.921 1209.2 564.921C1209.05 564.921 1208.91 564.974 1208.8 565.071C1208.69 565.167 1208.62 565.3 1208.6 565.445V587.525C1208.6 587.605 1208.61 587.686 1208.64 587.761C1208.67 587.836 1208.71 587.905 1208.77 587.963C1208.82 588.02 1208.89 588.066 1208.97 588.097C1209.04 588.128 1209.12 588.143 1209.2 588.141Z" fill="#302719"/>
<path d="M1206.51 361.406C1206.62 361.405 1206.73 361.375 1206.82 361.319C1206.91 361.262 1206.99 361.18 1207.04 361.084C1207.07 361.014 1207.1 360.939 1207.1 360.861C1207.11 360.783 1207.1 360.705 1207.07 360.631C1207.05 360.557 1207.01 360.489 1206.96 360.431C1206.91 360.373 1206.84 360.326 1206.77 360.292L1158.15 336.05C1158.01 335.98 1157.85 335.967 1157.7 336.015C1157.55 336.064 1157.43 336.169 1157.36 336.308C1157.32 336.377 1157.3 336.453 1157.3 336.53C1157.29 336.608 1157.3 336.686 1157.32 336.76C1157.35 336.834 1157.39 336.902 1157.44 336.96C1157.49 337.019 1157.56 337.066 1157.63 337.099L1206.25 361.341C1206.33 361.385 1206.42 361.407 1206.51 361.406Z" fill="#302719"/>
</g>
<defs>
<linearGradient id="paint0_linear_696_18076" x1="1174" y1="-96.0348" x2="725.755" y2="925.824" gradientUnits="userSpaceOnUse">
<stop stop-color="#FFDFDF"/>
<stop offset="1" stop-color="#E4DFFF"/>
</linearGradient>
<linearGradient id="paint1_linear_696_18076" x1="3610.89" y1="2254.32" x2="-1006.74" y2="-332.847" gradientUnits="userSpaceOnUse">
<stop stop-color="#DBCEF8"/>
<stop offset="1" stop-color="#EDDFFF" stop-opacity="0.46"/>
</linearGradient>
<clipPath id="clip0_696_18076">
<rect width="1440" height="660" fill="white"/>
</clipPath>
</defs>
</svg>
